# Blender 3.1.0
# www.blender.org
mtllib Carrot_Plantobj.mtl
o Carrot_Plant
v -0.485870 -0.004494 0.000000
v 0.485870 -0.004494 0.000000
v -0.485870 1.297913 0.000000
v 0.485870 1.297913 0.000000
v 0.000000 -0.004494 0.485870
v -0.000000 -0.004494 -0.485870
v 0.000000 1.297913 0.485870
v -0.000000 1.297913 -0.485870
v 0.028278 0.611962 0.009016
v 0.123671 0.543779 -0.133373
v 0.118075 0.988521 -0.111141
v 0.213468 0.920338 -0.253530
v -0.064816 0.809820 -0.090991
v 0.113733 0.804384 -0.106301
v -0.036542 1.140483 0.121342
v 0.142008 1.135046 0.106032
v 0.059685 0.732203 0.104200
v 0.035866 0.762543 -0.055258
v -0.189552 0.978726 0.188336
v -0.213370 1.009067 0.028877
v 0.184352 0.679063 -0.000100
v -0.022865 0.600203 0.147207
v -0.154088 1.077145 -0.263076
v -0.361306 0.998285 -0.115770
v 0.025769 0.440267 -0.018910
v -0.021703 0.453761 -0.188879
v 0.153099 0.807712 -0.025299
v 0.105627 0.821207 -0.195269
v 0.095127 0.566171 0.111259
v -0.049993 0.611311 -0.152668
v 0.035494 1.217011 0.255363
v -0.109626 1.262151 -0.008564
v 0.053673 0.642616 -0.092890
v -0.005010 0.559530 0.018005
v -0.159618 0.885653 -0.023668
v -0.218301 0.802567 0.087228
v 0.163922 0.540416 -0.048292
v 0.022928 0.590522 0.029109
v 0.318322 0.869959 0.019635
v 0.177327 0.920064 0.097036
v 0.156318 0.574108 -0.088135
v 0.040741 0.606373 0.048884
v -0.030197 0.849810 -0.310384
v -0.145774 0.882074 -0.173365
v -0.118856 0.815701 -0.124938
v 0.112959 0.697660 0.064088
v -0.103843 1.423057 0.235926
v 0.127971 1.305016 0.424952
v 0.115703 0.444657 0.154835
v 0.022660 0.480145 0.037711
v -0.026539 0.687691 0.341468
v -0.119581 0.723179 0.224344
v -0.152701 0.647697 0.015036
v -0.055825 0.663716 -0.079892
v -0.213442 0.941347 0.002602
v -0.116566 0.957366 -0.092326
v 0.130416 0.526157 -0.091398
v 0.070444 0.381603 0.243514
v -0.313595 1.176063 0.109604
v -0.373567 1.031509 0.444517
v -0.070106 0.710968 0.244808
v -0.037237 0.636294 -0.111608
v -0.450370 1.395875 0.066241
v -0.417500 1.321200 -0.290175
v -0.130723 0.665943 -0.038677
v -0.003018 0.750794 0.107019
v -0.455442 0.983129 0.061218
v -0.327737 1.067981 0.206915
v -0.006320 0.608411 0.063757
v 0.084723 0.482900 -0.230569
v 0.188303 1.276313 -0.160858
v 0.279346 1.150803 -0.455184
v -0.123514 0.565264 0.224965
v 0.053355 0.473540 -0.006170
v 0.330455 1.031306 0.387407
v 0.507324 0.939583 0.156273
v -0.123720 0.483879 0.062490
v 0.008492 0.637216 -0.127010
v -0.250844 0.987448 0.381269
v -0.118632 1.140785 0.191769
v 0.145270 0.536303 -0.063151
v 0.022993 0.528143 0.065239
v 0.002409 0.880807 -0.177314
v -0.119868 0.872646 -0.048923
v 0.133953 0.604145 0.132996
v -0.073700 0.808189 0.068118
v 0.511171 1.071491 0.395473
v 0.303519 1.275535 0.330596
v -0.073189 0.662487 -0.016824
v -0.146969 0.583162 -0.138059
v -0.339425 0.900665 -0.010643
v -0.413205 0.821340 -0.131878
v -0.127528 0.619948 -0.022124
v -0.048544 0.515382 -0.148962
v -0.161358 0.917481 -0.288478
v -0.082374 0.812915 -0.415317
v -0.046883 0.452869 -0.184573
v 0.056851 0.642251 0.110103
v 0.128434 1.082398 -0.650874
v 0.232169 1.271780 -0.356198
v 0.183180 0.848961 -0.107151
v 0.012128 0.717563 -0.104304
v -0.073737 1.178565 -0.330891
v -0.244789 1.047168 -0.328043
v 0.011980 0.702063 -0.119551
v 0.049357 0.553533 0.182275
v -0.060443 1.362642 0.214491
v -0.023065 1.214113 0.516317
v 0.111838 0.748844 -0.068137
v -0.014792 0.575129 0.147875
v 0.313599 1.183497 0.399683
v 0.186969 1.009781 0.615695
v -0.024386 0.470278 0.146698
v 0.047734 0.265970 -0.138260
v -0.383175 0.993041 -0.318915
v -0.311055 0.788734 -0.603873
v -0.198401 0.772664 0.139891
v 0.007295 0.659352 0.057422
v -0.214667 1.074772 -0.315775
v -0.008970 0.961460 -0.398244
v -0.071030 0.592461 -0.022950
v 0.108842 0.564954 -0.061896
v 0.031786 0.880531 0.248452
v 0.211658 0.853025 0.209506
v 0.129094 0.232235 0.021775
v -0.128063 0.436504 -0.088013
v 0.511996 0.843960 0.263056
v 0.254840 1.048228 0.153268
v -0.193023 0.548783 -0.054385
v -0.008246 0.435144 -0.162189
v -0.147189 0.951102 -0.399920
v 0.037588 0.837463 -0.507724
v -0.056348 0.474910 0.000643
v 0.055236 0.496771 -0.082642
v -0.171228 0.750751 -0.080867
v -0.059644 0.772612 -0.164152
v -0.075796 0.471884 0.173965
v -0.127381 0.546199 -0.004895
v 0.195355 0.813115 0.237541
v 0.143770 0.887430 0.058681
v -0.074873 0.444190 -0.167242
v -0.106816 0.390831 -0.009226
v 0.162943 0.698631 -0.033249
v 0.131000 0.645272 0.124767
v 0.173969 0.560316 0.151829
v -0.043508 0.735833 -0.098458
v 0.709234 1.186804 0.126063
v 0.491757 1.362320 -0.124224
v -0.178020 0.810935 0.108202
v 0.013722 0.688425 -0.008049
v -0.249093 1.131744 -0.347105
v -0.057352 1.009234 -0.463356
v -0.075754 0.841468 0.222932
v 0.152910 0.791635 -0.055564
v 0.101588 1.620912 0.229071
v 0.330252 1.571079 -0.049424
v -0.192738 0.747753 0.042092
v -0.011550 0.584445 -0.099223
v 0.125016 1.250430 -0.131407
v 0.306204 1.087122 -0.272721
v 0.008023 0.576703 -0.095576
v 0.159801 0.618458 0.042058
v 0.021700 1.011812 -0.242660
v 0.173478 1.053567 -0.105025
v -0.029900 0.691499 -0.042126
v -0.132878 0.781878 -0.155779
v 0.258297 0.950144 -0.097574
v 0.155320 1.040523 -0.211226
v 0.185804 0.156669 -0.059290
v -0.129980 0.296318 0.030951
v 0.496386 0.876297 -0.086100
v 0.180602 1.015947 0.004141
v -0.073194 0.391351 -0.083695
v 0.257362 0.481914 -0.001444
v -0.286783 1.134803 -0.043896
v 0.043773 1.225366 0.038355
v -0.007959 0.607105 0.043802
v 0.130070 0.548392 -0.140285
v -0.191244 1.015764 -0.223963
v -0.053216 0.957051 -0.408050
v -0.027423 0.698377 0.196314
v -0.011154 0.753819 -0.003661
v -0.352454 1.014363 0.257477
v -0.336184 1.069806 0.057502
v 0.100849 0.523027 -0.167726
v 0.103349 0.345899 0.062576
v 0.281529 1.009393 0.204383
v 0.284030 0.832265 0.434685
v 0.121488 0.805289 0.146438
v 0.018038 0.747128 0.059933
v -0.064981 1.064094 0.195429
v -0.168431 1.005933 0.108924
v -0.136729 0.586814 0.043324
v 0.079022 0.724170 0.182930
v -0.164566 1.063802 -0.382956
v 0.051185 1.201158 -0.243350
v 0.107467 0.627276 -0.073421
v 0.096359 0.572719 0.139879
v -0.213779 0.982225 0.000638
v -0.224887 0.927668 0.213938
v 0.022130 0.554596 0.223225
v 0.082081 0.602997 -0.051523
v -0.373214 1.041315 0.222703
v -0.313263 1.089716 -0.052045
v -0.144836 0.739701 0.037236
v 0.105023 0.674948 0.001236
v -0.057801 1.231420 -0.243149
v 0.192058 1.166666 -0.279150
v -0.096527 0.648218 0.056197
v -0.002214 0.732295 -0.083537
v -0.231815 1.017027 0.186794
v -0.137502 1.101104 0.047061
vn -0.0000 -0.0000 1.0000
vn 1.0000 -0.0000 -0.0000
vn 0.8267 -0.0177 0.5623
vn 0.0553 -0.5429 0.8380
vn 0.7078 0.7058 0.0286
vn -0.2434 -0.6701 -0.7012
vn 0.9060 -0.3188 -0.2784
vn 0.8746 0.1798 -0.4502
vn -0.6572 -0.3937 -0.6427
vn -0.3544 0.3452 -0.8690
vn -0.6166 -0.7029 -0.3546
vn -0.6927 -0.3557 0.6274
vn 0.6756 0.6551 -0.3382
vn 0.6752 0.1701 0.7178
vn -0.8215 -0.4550 -0.3435
vn 0.8763 0.4813 -0.0200
vn -0.3839 -0.6110 0.6923
vn 0.9242 -0.1515 0.3505
vn 0.4536 -0.6532 0.6063
vn 0.8539 -0.1068 0.5093
vn -0.6255 -0.4666 -0.6253
vn 0.4290 0.1536 -0.8901
vn 0.4887 0.5635 -0.6661
vn 0.8974 0.3465 0.2731
vn -0.9336 0.3411 0.1095
vn 0.2783 -0.3814 -0.8815
vn -0.9891 -0.1364 0.0554
vn -0.8582 0.5038 -0.0980
vn 0.8668 0.4823 -0.1264
vn 0.5623 0.6983 0.4429
vn 0.0493 -0.6942 0.7181
vn 0.4419 0.0759 -0.8938
vn 0.6409 0.4568 0.6169
vn 0.4854 0.4275 0.7626
vn 0.7448 -0.5122 -0.4276
vn -0.7473 0.6606 0.0720
vn 0.4924 -0.4513 -0.7443
vn 0.6487 0.6661 0.3681
vn 0.7454 -0.1747 0.6433
vn 0.5690 -0.0771 0.8187
vn -0.6872 0.2519 0.6814
vn 0.3502 -0.5523 -0.7565
vn -0.2454 0.0699 -0.9669
vn -0.2108 -0.1125 0.9710
vn 0.7340 0.5706 0.3684
vn 0.6993 0.6722 0.2433
vn -0.9591 0.2193 0.1791
vn 0.4122 0.4473 -0.7937
vn -0.6707 0.4721 0.5721
vn -0.7468 -0.6339 -0.2010
vn 0.7472 0.6072 0.2700
vn 0.2403 0.4484 0.8609
vn 0.8016 0.0845 0.5919
vt 0.000000 0.000000
vt 1.000000 0.000000
vt 0.000000 0.552734
vt 1.000000 0.552734
vt 0.000000 0.000000
vt 1.000000 0.000000
vt 0.000000 0.552734
vt 1.000000 0.552734
vt 0.198636 0.627675
vt 0.361777 0.541215
vt 0.544473 0.790816
vt 0.707614 0.704357
vt 0.198636 0.627675
vt 0.361777 0.541215
vt 0.544473 0.790816
vt 0.707614 0.704357
vt 0.198636 0.627675
vt 0.361777 0.541215
vt 0.544473 0.790816
vt 0.707614 0.704357
vt 0.198636 0.627675
vt 0.361777 0.541215
vt 0.544473 0.790816
vt 0.707614 0.704357
vt 0.198636 0.627675
vt 0.361777 0.541215
vt 0.544473 0.790816
vt 0.707614 0.704357
vt 0.198636 0.627675
vt 0.361777 0.541215
vt 0.544473 0.790816
vt 0.707614 0.704357
vt 0.198636 0.627675
vt 0.361777 0.541215
vt 0.544473 0.790816
vt 0.707614 0.704357
vt 0.198636 0.627675
vt 0.361777 0.541215
vt 0.544473 0.790816
vt 0.707614 0.704357
vt 0.198636 0.627675
vt 0.361777 0.541215
vt 0.544473 0.790816
vt 0.707614 0.704357
vt 0.198636 0.627675
vt 0.361777 0.541215
vt 0.544473 0.790816
vt 0.707614 0.704357
vt 0.198636 0.627675
vt 0.361777 0.541215
vt 0.544473 0.790816
vt 0.707614 0.704357
vt 0.198636 0.627675
vt 0.361777 0.541215
vt 0.544473 0.790816
vt 0.707614 0.704357
vt 0.198636 0.627675
vt 0.361777 0.541215
vt 0.544473 0.790816
vt 0.707614 0.704357
vt 0.198636 0.627675
vt 0.361777 0.541215
vt 0.544473 0.790816
vt 0.707614 0.704357
vt 0.198636 0.627675
vt 0.361777 0.541215
vt 0.544473 0.790816
vt 0.707614 0.704357
vt 0.198636 0.627675
vt 0.361777 0.541215
vt 0.544473 0.790816
vt 0.707614 0.704357
vt 0.198636 0.627675
vt 0.361777 0.541215
vt 0.544473 0.790816
vt 0.707614 0.704357
vt 0.198636 0.627675
vt 0.361777 0.541215
vt 0.544473 0.790816
vt 0.707614 0.704357
vt 0.198636 0.627675
vt 0.361777 0.541215
vt 0.544473 0.790816
vt 0.707614 0.704357
vt 0.198636 0.627675
vt 0.361777 0.541215
vt 0.544473 0.790816
vt 0.707614 0.704357
vt 0.198636 0.627675
vt 0.361777 0.541215
vt 0.544473 0.790816
vt 0.707614 0.704357
vt 0.198636 0.627675
vt 0.361777 0.541215
vt 0.544473 0.790816
vt 0.707614 0.704357
vt 0.198636 0.627675
vt 0.361777 0.541215
vt 0.544473 0.790816
vt 0.707614 0.704357
vt 0.198636 0.627675
vt 0.361777 0.541215
vt 0.544473 0.790816
vt 0.707614 0.704357
vt 0.198636 0.627675
vt 0.361777 0.541215
vt 0.544473 0.790816
vt 0.707614 0.704357
vt 0.198636 0.627675
vt 0.361777 0.541215
vt 0.544473 0.790816
vt 0.707614 0.704357
vt 0.198636 0.627675
vt 0.361777 0.541215
vt 0.544473 0.790816
vt 0.707614 0.704357
vt 0.198636 0.627675
vt 0.361777 0.541215
vt 0.544473 0.790816
vt 0.707614 0.704357
vt 0.198636 0.627675
vt 0.361777 0.541215
vt 0.544473 0.790816
vt 0.707614 0.704357
vt 0.198636 0.627675
vt 0.361777 0.541215
vt 0.544473 0.790816
vt 0.707614 0.704357
vt 0.198636 0.627675
vt 0.361777 0.541215
vt 0.544473 0.790816
vt 0.707614 0.704357
vt 0.198636 0.627675
vt 0.361777 0.541215
vt 0.544473 0.790816
vt 0.707614 0.704357
vt 0.198636 0.627675
vt 0.361777 0.541215
vt 0.544473 0.790816
vt 0.707614 0.704357
vt 0.198636 0.627675
vt 0.361777 0.541215
vt 0.544473 0.790816
vt 0.707614 0.704357
vt 0.198636 0.627675
vt 0.361777 0.541215
vt 0.544473 0.790816
vt 0.707614 0.704357
vt 0.198636 0.627675
vt 0.361777 0.541215
vt 0.544473 0.790816
vt 0.707614 0.704357
vt 0.198636 0.627675
vt 0.361777 0.541215
vt 0.544473 0.790816
vt 0.707614 0.704357
vt 0.198636 0.627675
vt 0.361777 0.541215
vt 0.544473 0.790816
vt 0.707614 0.704357
vt 0.198636 0.627675
vt 0.361777 0.541215
vt 0.544473 0.790816
vt 0.707614 0.704357
vt 0.198636 0.627675
vt 0.361777 0.541215
vt 0.544473 0.790816
vt 0.707614 0.704357
vt 0.198636 0.627675
vt 0.361777 0.541215
vt 0.544473 0.790816
vt 0.707614 0.704357
vt 0.198636 0.627675
vt 0.361777 0.541215
vt 0.544473 0.790816
vt 0.707614 0.704357
vt 0.198636 0.627675
vt 0.361777 0.541215
vt 0.544473 0.790816
vt 0.707614 0.704357
vt 0.198636 0.627675
vt 0.361777 0.541215
vt 0.544473 0.790816
vt 0.707614 0.704357
vt 0.198636 0.627675
vt 0.361777 0.541215
vt 0.544473 0.790816
vt 0.707614 0.704357
vt 0.198636 0.627675
vt 0.361777 0.541215
vt 0.544473 0.790816
vt 0.707614 0.704357
vt 0.198636 0.627675
vt 0.361777 0.541215
vt 0.544473 0.790816
vt 0.707614 0.704357
vt 0.198636 0.627675
vt 0.361777 0.541215
vt 0.544473 0.790816
vt 0.707614 0.704357
vt 0.198636 0.627675
vt 0.361777 0.541215
vt 0.544473 0.790816
vt 0.707614 0.704357
vt 0.198636 0.627675
vt 0.361777 0.541215
vt 0.544473 0.790816
vt 0.707614 0.704357
vt 0.198636 0.627675
vt 0.361777 0.541215
vt 0.544473 0.790816
vt 0.707614 0.704357
s 0
usemtl Carrot
f 1/1/1 2/2/1 4/4/1 3/3/1
f 5/5/2 6/6/2 8/8/2 7/7/2
f 9/9/3 10/10/3 12/12/3 11/11/3
f 13/13/4 14/14/4 16/16/4 15/15/4
f 17/17/5 18/18/5 20/20/5 19/19/5
f 21/21/6 22/22/6 24/24/6 23/23/6
f 25/25/7 26/26/7 28/28/7 27/27/7
f 29/29/8 30/30/8 32/32/8 31/31/8
f 33/33/9 34/34/9 36/36/9 35/35/9
f 37/37/10 38/38/10 40/40/10 39/39/10
f 41/41/11 42/42/11 44/44/11 43/43/11
f 45/45/12 46/46/12 48/48/12 47/47/12
f 49/49/13 50/50/13 52/52/13 51/51/13
f 53/53/14 54/54/14 56/56/14 55/55/14
f 57/57/15 58/58/15 60/60/15 59/59/15
f 61/61/16 62/62/16 64/64/16 63/63/16
f 65/65/17 66/66/17 68/68/17 67/67/17
f 69/69/18 70/70/18 72/72/18 71/71/18
f 73/73/19 74/74/19 76/76/19 75/75/19
f 77/77/20 78/78/20 80/80/20 79/79/20
f 81/81/21 82/82/21 84/84/21 83/83/21
f 85/85/22 86/86/22 88/88/22 87/87/22
f 89/89/23 90/90/23 92/92/23 91/91/23
f 93/93/24 94/94/24 96/96/24 95/95/24
f 97/97/25 98/98/25 100/100/25 99/99/25
f 101/101/26 102/102/26 104/104/26 103/103/26
f 105/105/27 106/106/27 108/108/27 107/107/27
f 109/109/28 110/110/28 112/112/28 111/111/28
f 113/113/29 114/114/29 116/116/29 115/115/29
f 117/117/30 118/118/30 120/120/30 119/119/30
f 121/121/31 122/122/31 124/124/31 123/123/31
f 125/125/32 126/126/32 128/128/32 127/127/32
f 129/129/33 130/130/33 132/132/33 131/131/33
f 133/133/34 134/134/34 136/136/34 135/135/34
f 137/137/35 138/138/35 140/140/35 139/139/35
f 141/141/36 142/142/36 144/144/36 143/143/36
f 145/145/37 146/146/37 148/148/37 147/147/37
f 149/149/38 150/150/38 152/152/38 151/151/38
f 153/153/39 154/154/39 156/156/39 155/155/39
f 157/157/40 158/158/40 160/160/40 159/159/40
f 161/161/41 162/162/41 164/164/41 163/163/41
f 165/165/42 166/166/42 168/168/42 167/167/42
f 169/169/43 170/170/43 172/172/43 171/171/43
f 173/173/44 174/174/44 176/176/44 175/175/44
f 177/177/45 178/178/45 180/180/45 179/179/45
f 181/181/46 182/182/46 184/184/46 183/183/46
f 185/185/47 186/186/47 188/188/47 187/187/47
f 189/189/48 190/190/48 192/192/48 191/191/48
f 193/193/49 194/194/49 196/196/49 195/195/49
f 197/197/50 198/198/50 200/200/50 199/199/50
f 201/201/51 202/202/51 204/204/51 203/203/51
f 205/205/52 206/206/52 208/208/52 207/207/52
f 209/209/53 210/210/53 212/212/53 211/211/53
