# Blender v3.1.0 OBJ File: 'Plants.blend'
# www.blender.org
mtllib Grass .mtl
o Grass__Plane.025
v 0.043222 0.093305 -0.086801
v 0.030543 0.105307 -0.062841
v 0.019671 0.087490 -0.039336
v 0.011151 0.050440 -0.016847
v -0.002141 0.000185 -0.000879
v 0.004578 0.019861 -0.004020
v 0.002128 0.000156 0.001052
v 0.027397 0.105048 -0.064848
v 0.016010 0.087364 -0.041746
v 0.007068 0.050585 -0.019484
v 0.133890 0.081957 0.021901
v 0.106837 0.100313 0.024263
v 0.075206 0.086015 0.027112
v 0.042026 0.050230 0.030563
v 0.009549 -0.000202 0.025006
v 0.020196 0.019785 0.030446
v 0.010112 -0.000562 0.030148
v 0.133843 0.082030 0.020748
v 0.106787 0.100185 0.020117
v 0.075304 0.086082 0.022254
v 0.042147 0.050624 0.025190
v -0.005419 0.000263 0.038176
v -0.035268 0.150440 0.177140
v -0.024500 0.163434 0.127134
v -0.018881 0.136569 0.087561
v -0.017595 0.091123 0.056320
v -0.014371 0.037442 0.040426
v -0.013680 0.000263 0.036378
v -0.033456 0.150479 0.177546
v -0.018182 0.163004 0.129283
v -0.011353 0.136445 0.089534
v -0.009239 0.091981 0.058475
v -0.006472 0.037095 0.042115
v -0.030771 0.000186 0.048588
v -0.128723 0.114718 0.071067
v -0.093327 0.114357 0.062973
v -0.066864 0.096893 0.054902
v -0.045972 0.063515 0.046204
v -0.034876 0.026358 0.043523
v -0.032083 0.000186 0.042756
v -0.128434 0.114663 0.072350
v -0.093443 0.113333 0.067754
v -0.065100 0.096040 0.060133
v -0.044872 0.063435 0.052202
v -0.033622 0.026457 0.049097
v 0.012524 0.000058 0.045768
v 0.010947 0.000109 0.049499
v 0.012130 0.000070 0.046701
v 0.011736 0.000083 0.047633
v 0.011341 0.000096 0.048566
v -0.013841 0.000312 0.032497
v 0.129534 0.160337 -0.055520
v 0.077829 0.175728 -0.023826
v 0.039753 0.156291 0.003391
v 0.011580 0.111601 0.028142
v -0.009617 0.043830 0.030184
v -0.004702 0.043210 0.038390
v -0.008630 0.000312 0.041039
v 0.128400 0.160383 -0.057403
v 0.073115 0.170128 -0.025606
v 0.073965 0.175802 -0.030779
v 0.034409 0.155071 -0.003997
v 0.006645 0.111936 0.019194
v -0.029796 0.000916 0.041329
v -0.156006 0.130539 0.055379
v -0.117935 0.126656 0.047854
v -0.081510 0.101735 0.042136
v -0.048424 0.072958 0.036913
v -0.034107 0.031354 0.035036
v -0.030800 0.000916 0.034397
v -0.155791 0.130164 0.056893
v -0.118222 0.124148 0.053252
v -0.083118 0.100843 0.048771
v -0.047247 0.072438 0.043948
v -0.033163 0.031570 0.041663
v -0.036886 0.000334 0.026617
v -0.210290 0.215105 -0.061482
v -0.155161 0.219805 -0.039165
v -0.104168 0.182918 -0.016081
v -0.056981 0.115935 0.005296
v -0.037169 0.047385 0.014914
v -0.032359 0.000334 0.016891
v -0.211291 0.215216 -0.059347
v -0.153926 0.213835 -0.033878
v -0.159067 0.220029 -0.031584
v -0.108374 0.183668 -0.007180
v -0.061619 0.112994 0.015209
v -0.041448 0.046825 0.024227
v -0.017111 0.000167 0.005265
v -0.093908 0.107342 0.064611
v -0.072674 0.109545 0.045126
v -0.050925 0.091428 0.026626
v -0.031014 0.058500 0.009769
v -0.022446 0.023669 0.002887
v -0.020522 0.000167 0.001140
v -0.093160 0.107398 0.065519
v -0.069475 0.109799 0.047908
v -0.047527 0.091565 0.030181
v -0.027577 0.058932 0.014000
v -0.019166 0.023457 0.006814
v -0.096773 0.079453 -0.035739
v -0.076065 0.081103 -0.030467
v -0.055918 0.067690 -0.024067
v -0.037523 0.043311 -0.018176
v -0.027497 0.000141 -0.014772
v -0.076558 0.081291 -0.027367
v -0.056818 0.067791 -0.020538
v -0.038832 0.043631 -0.014358
v -0.028471 0.000153 -0.010993
v 0.064306 0.053086 -0.026513
v 0.050920 0.054188 -0.021548
v 0.037414 0.045226 -0.017416
v 0.025064 0.028938 -0.013670
v 0.018260 0.000094 -0.011734
v 0.045616 0.053346 -0.022268
v 0.024334 0.029152 -0.016266
v 0.017360 0.000103 -0.014182
v 0.003948 0.000232 -0.000567
v 0.054042 0.137404 0.102742
v 0.034068 0.135690 0.058961
v 0.016379 0.110224 0.022246
v 0.002746 0.072102 0.003029
v -0.001344 0.031958 0.004490
v -0.002823 0.000232 0.002589
v 0.055530 0.137447 0.102047
v 0.038913 0.135968 0.055464
v 0.022530 0.109649 0.019250
v 0.009721 0.072047 -0.000020
v 0.005130 0.031992 0.001473
v -0.010189 0.000166 -0.019139
v -0.034351 0.107003 -0.112822
v -0.024853 0.109198 -0.085709
v -0.016458 0.091139 -0.058513
v -0.008847 0.058315 -0.033645
v -0.005913 0.023594 -0.023090
v -0.005069 0.000166 -0.020642
v -0.035477 0.107058 -0.112493
v -0.028659 0.109452 -0.083873
v -0.021052 0.091275 -0.056798
v -0.014075 0.058746 -0.032160
v -0.010799 0.023383 -0.021631
v 0.169158 0.093305 0.002489
v 0.142085 0.105307 0.001123
v 0.116186 0.087490 0.001204
v 0.092204 0.050440 0.002986
v 0.072155 0.000175 -0.002309
v 0.077801 0.019861 0.002451
v 0.072166 0.000157 0.002373
v 0.142573 0.105048 -0.002576
v 0.116824 0.087364 -0.003133
v 0.092869 0.050585 -0.001829
v 0.154343 0.117241 -0.091572
v 0.125542 0.132834 -0.073036
v 0.099003 0.110540 -0.053216
v 0.075462 0.063790 -0.033032
v 0.050383 0.000233 -0.022981
v 0.059997 0.025141 -0.022508
v 0.053948 0.000190 -0.018221
v 0.153636 0.117256 -0.092692
v 0.123228 0.132513 -0.077172
v 0.096359 0.110390 -0.058115
v 0.072485 0.063984 -0.038440
v 0.139763 0.081085 0.112182
v 0.121630 0.099847 0.092250
v 0.098575 0.085914 0.070162
v 0.072954 0.050634 0.047919
v 0.053942 0.000232 0.020920
v 0.057593 0.020404 0.031993
v 0.050365 0.000155 0.024678
v 0.140624 0.081091 0.111411
v 0.124808 0.099506 0.089611
v 0.102377 0.085694 0.067145
v 0.077183 0.050708 0.044580
v 0.035326 0.000263 0.011224
v -0.103225 0.192784 0.042899
v -0.053354 0.205773 0.031526
v -0.014936 0.166754 0.019842
v 0.013874 0.094541 0.007821
v 0.031328 0.037029 0.011931
v 0.029609 0.036544 0.004036
v 0.033478 0.000264 0.002975
v -0.102827 0.192823 0.044713
v -0.052364 0.205455 0.038105
v -0.013833 0.166713 0.027573
v 0.015254 0.094983 0.016360
v -0.046586 0.136318 -0.086628
v -0.024370 0.145503 -0.058086
v -0.005385 0.117913 -0.036973
v 0.010941 0.066851 -0.022115
v 0.015479 0.000202 -0.007127
v 0.018076 0.025841 -0.013169
v 0.019911 0.000186 -0.011011
v -0.047629 0.136346 -0.085831
v -0.028289 0.145278 -0.055481
v -0.010007 0.117884 -0.033952
v 0.005884 0.067163 -0.018675
v -0.086425 0.142891 0.104910
v -0.058704 0.152518 0.079046
v -0.038438 0.123597 0.057249
v -0.024454 0.070074 0.038815
v -0.009231 0.000211 0.032674
v -0.015781 0.027087 0.030529
v -0.013700 0.000195 0.028410
v -0.085494 0.142919 0.105924
v -0.055619 0.152282 0.082894
v -0.034851 0.123567 0.061792
v -0.020389 0.070401 0.043773
v 0.041015 0.062430 0.126752
v 0.039917 0.076886 0.106020
v 0.037466 0.066157 0.081557
v 0.033590 0.038990 0.055720
v 0.035962 0.000179 0.030403
v 0.031972 0.000403 0.030144
v 0.043097 0.076623 0.106065
v 0.041201 0.065987 0.081692
v 0.037736 0.039047 0.055880
v 0.036921 0.000312 0.001190
v 0.177284 0.228188 0.093934
v 0.126788 0.243562 0.060530
v 0.085386 0.197378 0.037186
v 0.051548 0.111904 0.022343
v 0.040802 0.043830 0.004040
v 0.035447 0.043256 0.011965
v 0.031382 0.000312 0.009523
v 0.178512 0.228234 0.092111
v 0.126330 0.237980 0.055443
v 0.131255 0.243757 0.053939
v 0.091103 0.197330 0.029923
v 0.057731 0.112426 0.014183
v 0.051330 0.000312 -0.002852
v 0.213904 0.200644 -0.083379
v 0.166474 0.205028 -0.054604
v 0.121163 0.170898 -0.029569
v 0.078473 0.109348 -0.005997
v 0.060240 0.044242 0.003465
v 0.056079 0.000312 0.005956
v 0.212866 0.200747 -0.085319
v 0.161832 0.199459 -0.056629
v 0.162984 0.205236 -0.061752
v 0.116242 0.171153 -0.037335
v 0.073730 0.110156 -0.015016
v 0.055675 0.043846 -0.004937
v 0.032512 0.000334 -0.022180
v 0.039073 0.215105 -0.216571
v 0.042145 0.219805 -0.157175
v 0.042763 0.183215 -0.101680
v 0.043330 0.117229 -0.049403
v 0.043002 0.047430 -0.027383
v 0.043239 0.000334 -0.022189
v 0.036714 0.215216 -0.216576
v 0.037875 0.213835 -0.153822
v 0.033624 0.220029 -0.157512
v 0.032931 0.183489 -0.100980
v 0.032407 0.118095 -0.049507
v 0.032749 0.047006 -0.027341
vt 0.081644 0.556512
vt 0.034735 0.538773
vt 0.081644 0.521600
vt 0.106347 0.241689
vt 0.105353 0.272774
vt 0.076386 0.241661
vt 0.061830 0.219050
vt 0.117877 0.335382
vt 0.064970 0.335382
vt 0.118304 0.219050
vt 0.176666 0.280348
vt 0.196887 0.338542
vt 0.178960 0.338542
vt 0.062141 0.219050
vt 0.115227 0.335382
vt 0.064921 0.335382
vt 0.119128 0.219050
vt 0.064097 0.133741
vt 0.118718 0.219050
vt 0.062602 0.219050
vt 0.116829 0.133741
vt 0.063059 0.076678
vt 0.118718 0.219050
vt 0.062602 0.219050
vt 0.117881 0.076736
vt 0.063059 0.076678
vt 0.118718 0.219050
vt 0.062602 0.219050
vt 0.117881 0.076736
vt 0.066188 0.335382
vt 0.114832 0.408514
vt 0.067998 0.408514
vt 0.115862 0.335382
vt 0.064097 0.133741
vt 0.118718 0.219050
vt 0.062602 0.219050
vt 0.116829 0.133741
vt 0.081644 0.556512
vt 0.034735 0.538773
vt 0.081644 0.521600
vt 0.117879 0.076868
vt 0.116059 0.133741
vt 0.063061 0.076817
vt 0.117879 0.076868
vt 0.116059 0.133741
vt 0.063061 0.076817
vt 0.081644 0.556512
vt 0.034735 0.538773
vt 0.081644 0.521600
vt 0.176614 0.280348
vt 0.196887 0.338542
vt 0.178934 0.338542
vt 0.064097 0.133741
vt 0.118718 0.219050
vt 0.062602 0.219050
vt 0.116829 0.133741
vt 0.064097 0.133741
vt 0.118718 0.219050
vt 0.062602 0.219050
vt 0.116829 0.133741
vt 0.342893 0.517163
vt 0.342834 0.560335
vt 0.298043 0.558902
vt 0.230857 0.514896
vt 0.230857 0.560650
vt 0.139239 0.518685
vt 0.139239 0.558723
vt 0.077475 0.382983
vt 0.074812 0.319401
vt 0.106566 0.319401
vt 0.105241 0.382984
vt 0.079498 0.422955
vt 0.103705 0.422955
vt 0.196454 0.466381
vt 0.196454 0.433826
vt 0.202633 0.433826
vt 0.198914 0.466381
vt 0.173760 0.272332
vt 0.175845 0.204448
vt 0.217852 0.204448
vt 0.218576 0.272332
vt 0.175078 0.159192
vt 0.218697 0.159192
vt 0.175681 0.364901
vt 0.216930 0.364901
vt 0.179485 0.423095
vt 0.214838 0.423095
vt 0.189938 0.470491
vt 0.204051 0.470491
vt 0.117193 0.133741
vt 0.064099 0.133741
vt 0.063062 0.076868
vt 0.117879 0.076868
vt 0.081718 0.468076
vt 0.067663 0.408514
vt 0.113017 0.408514
vt 0.099472 0.468076
vt 0.174042 0.187779
vt 0.218970 0.187779
vt 0.217030 0.280348
vt 0.175078 0.074639
vt 0.217236 0.119895
vt 0.175912 0.119895
vt 0.218697 0.074639
vt 0.214800 0.338542
vt 0.189938 0.385938
vt 0.204051 0.385938
vt 0.116792 0.133741
vt 0.064109 0.133741
vt 0.063062 0.076868
vt 0.117879 0.076868
vt 0.118917 0.219050
vt 0.062605 0.219050
vt 0.068224 0.408514
vt 0.067005 0.335382
vt 0.116905 0.335382
vt 0.113012 0.408514
vt 0.081782 0.468076
vt 0.099455 0.468076
vt 0.117344 0.133741
vt 0.064106 0.133741
vt 0.063062 0.076868
vt 0.117879 0.076868
vt 0.090470 0.408514
vt 0.067995 0.408514
vt 0.081692 0.468076
vt 0.113037 0.408514
vt 0.099473 0.468076
vt 0.116128 0.335382
vt 0.064933 0.335382
vt 0.063062 0.076868
vt 0.117879 0.076868
vt 0.114235 0.408514
vt 0.067996 0.408514
vt 0.116128 0.335382
vt 0.064933 0.335382
vt 0.081692 0.468076
vt 0.099473 0.468076
vt 0.114235 0.408514
vt 0.067995 0.408514
vt 0.116128 0.335382
vt 0.067194 0.389383
vt 0.090478 0.468076
vt 0.116800 0.133741
vt 0.064114 0.133741
vt 0.063062 0.076868
vt 0.117879 0.076868
vt 0.114235 0.408514
vt 0.090478 0.468076
vt 0.062077 0.219050
vt 0.118184 0.219050
vt 0.116128 0.335382
vt 0.064933 0.335382
vt 0.081724 0.468076
vt 0.099473 0.468076
vt 0.063062 0.076868
vt 0.117879 0.076868
vt 0.114235 0.408514
vt 0.067995 0.408514
vt 0.139239 0.518685
vt 0.230857 0.514896
vt 0.230857 0.560650
vt 0.139239 0.558723
vt 0.081692 0.468076
vt 0.099473 0.468076
vt 0.342891 0.517163
vt 0.342834 0.560335
vt 0.298043 0.558902
vt 0.182530 0.393855
vt 0.179900 0.330272
vt 0.211653 0.330272
vt 0.210316 0.393855
vt 0.181473 0.252520
vt 0.211435 0.252560
vt 0.210440 0.283645
vt 0.184553 0.433826
vt 0.208782 0.433826
vt 0.191681 0.466381
vt 0.201375 0.466381
vt 0.182530 0.393855
vt 0.179900 0.330272
vt 0.211653 0.330272
vt 0.210316 0.393855
vt 0.181473 0.252520
vt 0.211435 0.252560
vt 0.210440 0.283645
vt 0.184553 0.433826
vt 0.208782 0.433826
vt 0.191681 0.466381
vt 0.201375 0.466381
vt 0.176614 0.364901
vt 0.172786 0.272332
vt 0.219015 0.272332
vt 0.217068 0.364901
vt 0.175078 0.159192
vt 0.217249 0.204448
vt 0.175912 0.204448
vt 0.218697 0.159192
vt 0.179560 0.423095
vt 0.214834 0.423095
vt 0.189938 0.470491
vt 0.204051 0.470491
vt 0.064993 0.335382
vt 0.060182 0.219050
vt 0.118278 0.219050
vt 0.115832 0.335382
vt 0.068695 0.408514
vt 0.113024 0.408514
vt 0.081737 0.468076
vt 0.099473 0.468076
vt 0.064993 0.335382
vt 0.060182 0.219050
vt 0.118278 0.219050
vt 0.115832 0.335382
vt 0.068695 0.408514
vt 0.113024 0.408514
vt 0.081737 0.468076
vt 0.099473 0.468076
vt 0.139239 0.518685
vt 0.230857 0.514895
vt 0.230857 0.560650
vt 0.139239 0.558723
vt 0.342891 0.517163
vt 0.342963 0.560339
vt 0.172786 0.187779
vt 0.219015 0.187779
vt 0.217068 0.280348
vt 0.175078 0.074639
vt 0.217249 0.119895
vt 0.175912 0.119895
vt 0.218697 0.074639
vt 0.214834 0.338542
vt 0.189938 0.385938
vt 0.204051 0.385938
vt 0.116128 0.335382
vt 0.064933 0.335382
vt 0.063062 0.076868
vt 0.117879 0.076868
vt 0.090470 0.408514
vt 0.067995 0.408514
vt 0.081692 0.468076
vt 0.113037 0.408514
vt 0.099473 0.468076
vt 0.116128 0.335382
vt 0.064933 0.335382
vt 0.063062 0.076868
vt 0.117879 0.076868
vt 0.090470 0.408514
vt 0.067996 0.408514
vt 0.081692 0.468076
vt 0.113037 0.408514
vt 0.099473 0.468076
vn 0.1620 0.9139 -0.3721
vn -0.8894 0.4389 0.1281
vn -0.8354 0.5316 -0.1395
vn -0.8376 0.5037 -0.2114
vn 0.8856 0.4288 -0.1786
vn 0.7212 0.6895 -0.0668
vn 0.6931 0.7112 -0.1178
vn 0.8896 0.4288 -0.1575
vn 0.1603 0.6518 0.7413
vn 0.3716 0.5944 0.7131
vn 0.7710 0.4746 0.4247
vn 0.6707 0.6959 0.2566
vn 0.6714 0.7294 0.1308
vn 0.7351 0.4742 0.4846
vn 0.7489 0.2268 -0.6227
vn 0.6567 0.4756 -0.5853
vn 0.6271 0.5242 -0.5762
vn 0.7536 0.2268 -0.6170
vn 0.9324 0.2405 0.2697
vn 0.8829 0.4010 0.2444
vn 0.8503 0.4667 0.2433
vn 0.9408 0.2376 0.2417
vn -0.9205 0.2405 0.3080
vn -0.9284 0.2431 0.2811
vn -0.9115 0.2376 0.3358
vn -0.3070 0.6928 -0.6526
vn -0.2584 0.8406 -0.4761
vn -0.3617 0.8243 -0.4355
vn -0.2867 0.6446 -0.7088
vn 0.2767 0.2268 0.9338
vn 0.2788 0.4756 0.8343
vn 0.2821 0.5242 0.8035
vn 0.2697 0.2268 0.9358
vn 0.4057 0.9139 -0.0105
vn 0.6553 0.1097 0.7474
vn 0.4207 0.2085 0.8829
vn 0.3575 0.1798 0.9165
vn 0.6859 0.1097 -0.7194
vn 0.8418 0.2085 -0.4978
vn 0.8809 0.1798 -0.4378
vn 0.0599 0.8203 0.5688
vn -0.7594 0.6505 0.0120
vn -0.8566 0.2268 0.4634
vn -0.7590 0.4756 0.4447
vn -0.7282 0.5242 0.4416
vn -0.8602 0.2268 0.4567
vn 0.0022 0.2268 0.9739
vn 0.0320 0.4756 0.8791
vn 0.0438 0.5242 0.8505
vn -0.0054 0.2268 0.9739
vn -0.6718 0.3349 0.6607
vn -0.3948 0.2748 0.8767
vn -0.6163 0.3650 0.6979
vn -0.5671 0.4599 0.6833
vn -0.4663 0.5058 0.7257
vn -0.3444 0.8188 0.4593
vn -0.4227 0.6580 0.6232
vn -0.4230 0.6580 0.6230
vn -0.6192 0.7852 0.0063
vn -0.7812 0.6169 -0.0958
vn -0.7559 0.6545 0.0179
vn -0.6192 0.7852 0.0061
vn -0.4109 0.9116 -0.0084
vn 0.5588 0.8291 -0.0188
vn 0.2002 0.4275 -0.8816
vn 0.2126 0.2193 -0.9522
vn 0.2125 0.2464 -0.9456
vn 0.2114 0.1099 -0.9712
vn 0.2119 0.1098 -0.9711
vn 0.1896 0.6926 -0.6959
vn 0.1902 0.8278 -0.5277
vn -0.0300 0.9694 0.2438
vn 0.9535 0.2226 -0.2031
vn 0.9572 0.1904 -0.2182
vn 0.9695 0.1097 -0.2191
vn 0.0549 0.9833 0.1734
vn 0.5478 0.8340 0.0661
vn 0.5799 0.7936 0.1840
vn -0.6681 0.6362 0.3859
vn -0.7734 0.4427 0.4538
vn -0.7512 0.5016 0.4291
vn -0.8486 0.1097 0.5176
vn -0.8383 0.2125 0.5022
vn -0.8308 0.2137 0.5138
vn -0.8485 0.1097 0.5177
vn -0.4734 0.8714 -0.1288
vn -0.2378 0.6969 -0.6766
vn 0.4877 0.5471 0.6803
vn 0.9605 0.2402 -0.1407
vn 0.9605 0.2402 -0.1408
vn 0.9836 0.1097 -0.1431
vn 0.9343 0.3287 -0.1377
vn 0.4374 0.8332 0.3382
vn 0.6090 0.7682 0.1972
vn 0.5965 0.7491 0.2883
vn 0.4373 0.8333 0.3383
vn 0.6164 0.7861 -0.0450
vn 0.6437 0.7589 0.0987
vn 0.1750 0.9080 0.3806
vn 0.8684 0.2324 0.4380
vn 0.8863 0.1978 0.4188
vn 0.9009 0.1099 0.4199
vn 0.5668 0.8230 -0.0373
vn -0.2773 0.7498 0.6008
vn -0.1076 0.7383 0.6659
vn 0.1596 0.6727 0.7225
vn 0.3462 0.5648 -0.7491
vn 0.4842 0.7196 -0.4977
vn 0.7660 0.1097 -0.6334
vn 0.7660 0.1097 -0.6335
vn 0.3513 0.8381 -0.4173
vn 0.6786 0.7196 0.1470
vn -0.0909 0.9958 0.0136
vn -0.0907 0.9958 0.0138
vn -0.0910 0.9958 0.0135
vn -0.0904 0.9958 0.0140
vn 0.5400 0.8381 0.0768
vn -0.7760 0.6258 -0.0783
vn -0.0614 0.9956 -0.0702
vn -0.4159 0.0386 -0.9086
vn -0.4220 0.0513 -0.9051
vn -0.4214 0.0738 -0.9038
vn -0.2023 0.6448 0.7371
vn -0.0847 0.8998 -0.4281
vn -0.3372 0.5175 -0.7864
vn -0.4111 0.0109 -0.9115
vn -0.4005 0.0074 -0.9163
vn 0.2663 0.7196 0.6413
vn -0.0638 0.9979 -0.0089
vn -0.0584 0.9982 -0.0116
vn -0.0391 0.9990 -0.0213
vn 0.2799 0.1097 0.9537
vn 0.2449 0.8381 0.4874
vn -0.7434 0.6580 -0.1197
vn -0.8587 0.4595 -0.2268
vn -0.8548 0.5058 -0.1159
vn -0.7434 0.6580 -0.1200
vn 0.0234 0.9958 -0.0889
vn 0.0233 0.9958 -0.0888
vn 0.0228 0.9958 -0.0886
vn -0.8810 0.3338 -0.3353
vn -0.9615 0.2749 0.0033
vn -0.8920 0.3643 -0.2677
vn -0.5618 0.8188 -0.1180
vn -0.6609 0.6659 0.3460
vn -0.8193 0.4690 0.3298
vn -0.7495 0.5149 0.4162
vn -0.6611 0.6659 0.3458
vn -0.9033 0.3438 0.2565
vn -0.7661 0.2847 0.5762
vn -0.8714 0.3742 0.3172
vn -0.5126 0.8249 0.2382
vn 0.3337 0.9104 -0.2446
vn -0.3607 0.7885 -0.4982
vn -0.3946 0.6167 -0.6812
vn -0.4623 0.6602 -0.5919
vn -0.3604 0.7884 -0.4984
vn -0.3519 0.4986 -0.7922
vn -0.6506 0.4525 -0.6099
vn -0.4024 0.5299 -0.7465
vn -0.2116 0.9118 -0.3518
vn 0.4066 0.8211 0.4007
vn 0.8424 0.5239 -0.1262
vn 0.9257 0.3387 -0.1684
vn 0.9220 0.3552 -0.1541
vn 0.8425 0.5239 -0.1258
vn 0.9699 0.1098 -0.2175
vn 0.9560 0.2118 -0.2030
vn 0.9517 0.2136 -0.2203
vn 0.9699 0.1098 -0.2174
vn 0.6962 0.7129 -0.0840
vn -0.2348 0.9694 0.0711
vn 0.4709 0.5239 0.7098
vn 0.4428 0.3084 0.8419
vn 0.5300 0.3552 0.7700
vn 0.4707 0.5239 0.7100
vn 0.3708 0.7129 0.5952
vn -0.1638 0.9694 -0.1827
vn 0.6649 0.5239 -0.5324
vn 0.7990 0.3084 -0.5162
vn 0.7197 0.3552 -0.5966
vn 0.6651 0.5239 -0.5322
vn 0.5597 0.7129 -0.4225
vn -0.1673 0.9694 0.1794
vn 0.0494 0.7885 -0.6131
vn 0.0469 0.6114 -0.7899
vn 0.0322 0.6361 -0.7709
vn 0.0497 0.7884 -0.6131
vn 0.0849 0.5435 -0.8351
vn 0.0543 0.5479 -0.8348
vn 0.0676 0.9118 -0.4049
vn -0.6628 0.5018 -0.5558
vn -0.7610 0.3387 -0.5534
vn -0.7481 0.3552 -0.5605
vn -0.8275 0.1098 -0.5506
vn -0.8071 0.2118 -0.5511
vn -0.8165 0.2137 -0.5363
vn -0.8278 0.1096 -0.5502
vn -0.4704 0.7100 -0.5240
vn 0.5126 0.6971 -0.5013
vn -0.4128 0.5424 0.7317
vn -0.5515 0.7032 0.4487
vn -0.8749 0.1099 0.4717
vn -0.8751 0.1098 0.4713
vn -0.3097 0.8232 0.4759
vn -0.3158 0.7498 -0.5815
vn -0.4687 0.7384 -0.4848
vn -0.4687 0.7384 -0.4849
vn -0.6746 0.6727 -0.3039
vn 0.3935 0.5648 0.7254
vn 0.1339 0.7032 0.6983
vn 0.0008 0.1099 0.9939
vn 0.0002 0.1098 0.9940
vn 0.2723 0.8232 0.4982
vn -0.6617 0.7498 0.0026
vn -0.6490 0.7384 0.1830
vn -0.6491 0.7384 0.1830
vn -0.5873 0.6727 0.4501
vn 0.8252 0.5648 -0.0028
g Grass__Plane.025_Plants
usemtl Plants
s 1
f 2/1/1 1/2/1 8/3/1
f 17/4/2 16/5/3 15/6/4
f 44/7/5 37/8/6 43/9/7
f 38/10/8 37/8/6 44/7/5
f 62/11/9 60/12/10 61/13/10
f 87/14/11 79/15/12 86/16/13
f 80/17/14 79/15/12 87/14/11
f 100/18/15 93/19/16 99/20/17
f 94/21/18 93/19/16 100/18/15
f 109/22/19 104/23/20 108/24/21
f 105/25/22 104/23/20 109/22/19
f 117/26/23 113/27/23 116/28/24
f 114/29/25 113/27/23 117/26/23
f 127/30/26 120/31/27 126/32/28
f 121/33/29 120/31/27 127/30/26
f 141/34/30 134/35/31 140/36/32
f 135/37/33 134/35/31 141/34/30
f 143/38/34 142/39/34 149/40/34
f 192/41/35 191/42/36 190/43/37
f 203/44/38 202/45/39 201/46/40
f 209/47/41 208/48/41 214/49/41
f 228/50/42 226/51/42 227/52/42
f 242/53/43 234/54/44 241/55/45
f 235/56/46 234/54/44 242/53/43
f 255/57/47 247/58/48 254/59/49
f 248/60/50 247/58/48 255/57/47
f 5/61/51 7/62/52 6/63/53
f 5/61/51 6/63/53 10/64/54
f 6/63/53 4/65/55 10/64/54
f 8/3/56 9/66/57 3/67/58 2/1/56
f 20/68/59 21/69/60 14/70/61 13/71/62
f 15/6/4 16/5/3 21/69/60
f 16/5/3 14/70/61 21/69/60
f 19/72/63 20/68/59 13/71/62 12/73/63
f 18/74/64 19/75/64 12/76/64 11/77/64
f 32/78/65 33/79/66 27/80/67 26/81/65
f 22/82/68 28/83/69 33/79/66
f 28/83/69 27/80/67 33/79/66
f 31/84/70 32/78/65 26/81/65 25/85/70
f 30/86/71 31/84/70 25/85/70 24/87/71
f 29/88/72 30/86/72 24/87/72 23/89/72
f 39/90/73 45/91/74 34/92/75 40/93/75
f 41/94/76 42/95/76 36/96/76 35/97/76
f 45/91/74 39/90/73 44/7/5
f 39/90/73 38/10/8 44/7/5
f 43/9/7 37/8/6 42/95/77
f 37/8/6 36/96/78 42/95/77
f 62/11/79 63/98/80 55/99/81 54/100/79
f 51/101/82 57/102/83 56/103/84
f 51/101/82 58/104/85 57/102/83
f 56/103/84 57/102/83 63/98/80
f 57/102/83 55/99/81 63/98/80
f 60/12/86 62/11/86 54/100/86 53/105/86
f 59/106/87 60/12/87 53/105/87 52/107/87
f 61/13/10 60/12/10 59/106/88
f 69/108/89 75/109/90 64/110/91 70/111/91
f 68/112/92 74/113/92 75/109/90 69/108/89
f 72/114/93 73/115/94 67/116/95 66/117/96
f 74/113/97 68/112/98 73/115/94
f 68/112/98 67/116/95 73/115/94
f 71/118/99 72/114/93 66/117/96 65/119/99
f 81/120/100 88/121/101 76/122/102 82/123/102
f 84/124/103 85/125/103 86/16/13 79/15/12
f 88/121/101 81/120/100 87/14/11
f 81/120/100 80/17/14 87/14/11
f 83/126/104 84/124/105 78/127/105 77/128/104
f 79/15/106 78/127/105 84/124/105
f 85/125/107 84/124/107 83/126/107
f 92/129/108 98/130/108 99/20/17 93/19/16
f 89/131/109 95/132/110 100/18/15
f 95/132/110 94/21/18 100/18/15
f 91/133/111 97/134/111 98/130/108 92/129/108
f 103/135/112 107/136/112 108/24/21 104/23/20
f 97/134/113 91/133/114 96/137/115
f 91/133/114 90/138/116 96/137/115
f 102/139/117 106/140/117 107/136/112 103/135/112
f 112/141/118 115/142/118 116/28/118 113/27/118
f 106/140/119 102/139/119 101/143/119
f 123/144/120 129/145/121 118/146/122 124/147/122
f 115/142/123 112/141/123 111/148/123
f 115/142/124 111/148/124 110/149/124
f 127/30/26 128/150/125 122/151/125 121/33/29
f 129/145/121 123/144/120 128/150/126
f 123/144/120 122/151/127 128/150/126
f 133/152/128 139/153/128 140/36/32 134/35/31
f 126/32/129 120/31/130 125/154/130
f 120/31/130 119/155/131 125/154/130
f 130/156/132 136/157/132 141/34/30
f 136/157/132 135/37/33 141/34/30
f 132/158/133 138/159/133 139/153/128 133/152/128
f 150/160/134 151/161/135 145/162/136 144/163/137
f 138/159/138 132/158/138 137/164/139
f 132/158/138 131/165/140 137/164/139
f 146/166/141 148/167/142 147/168/143
f 146/166/141 147/168/143 151/161/135
f 147/168/143 145/162/136 151/161/135
f 149/40/144 150/160/134 144/163/137 143/38/144
f 161/169/145 162/170/146 155/171/147 154/172/148
f 156/173/149 158/174/150 157/175/151
f 156/173/149 157/175/151 162/170/146
f 157/175/151 155/171/147 162/170/146
f 160/176/152 161/169/145 154/172/148 153/177/152
f 159/178/153 160/176/153 153/177/153 152/179/153
f 172/180/154 173/181/155 166/182/156 165/183/157
f 167/184/158 169/185/159 168/186/160
f 167/184/158 168/186/160 173/181/155
f 168/186/160 166/182/156 173/181/155
f 171/187/161 172/180/154 165/183/157 164/188/161
f 170/189/162 171/187/162 164/188/162 163/190/162
f 184/191/163 185/192/164 178/193/165 177/194/166
f 174/195/167 180/196/168 179/197/169
f 174/195/167 181/198/170 180/196/168
f 179/197/169 180/196/168 185/192/164
f 180/196/168 178/193/165 185/192/164
f 183/199/171 184/191/163 177/194/166 176/200/171
f 182/201/172 183/199/172 176/200/172 175/202/172
f 195/203/173 196/204/174 189/205/175 188/206/176
f 190/43/37 191/42/36 196/204/174
f 191/42/36 189/205/175 196/204/174
f 194/207/177 195/203/173 188/206/176 187/208/177
f 193/209/178 194/207/178 187/208/178 186/210/178
f 206/211/179 207/212/180 200/213/181 199/214/182
f 201/46/40 202/45/39 207/212/180
f 202/45/39 200/213/181 207/212/180
f 205/215/183 206/211/179 199/214/182 198/216/183
f 204/217/184 205/215/184 198/216/184 197/218/184
f 215/219/185 216/220/186 211/221/187 210/222/188
f 212/223/189 213/224/190 216/220/186
f 213/224/190 211/221/187 216/220/186
f 214/49/191 215/219/185 210/222/188 209/47/191
f 228/50/192 229/225/193 221/226/194 220/227/192
f 217/228/195 223/229/196 222/230/197
f 217/228/195 224/231/198 223/229/196
f 222/230/197 223/229/196 229/225/193
f 223/229/196 221/226/194 229/225/193
f 226/51/199 228/50/192 220/227/192 219/232/199
f 225/233/200 226/51/200 219/232/200 218/234/200
f 227/52/201 226/51/201 225/233/201
f 233/235/202 240/236/202 241/55/45 234/54/44
f 230/237/203 236/238/204 242/53/43
f 236/238/204 235/56/46 242/53/43
f 238/239/205 239/240/205 240/236/202 233/235/202
f 237/241/206 238/239/207 232/242/208 231/243/206
f 233/235/209 232/242/208 238/239/207
f 239/240/210 238/239/210 237/241/210
f 246/244/211 253/245/211 254/59/49 247/58/48
f 243/246/212 249/247/213 255/57/47
f 249/247/213 248/60/50 255/57/47
f 251/248/214 252/249/214 253/245/211 246/244/211
f 9/66/57 10/64/54 4/65/55 3/67/58
f 250/250/215 251/248/216 245/251/217 244/252/215
f 246/244/218 245/251/217 251/248/216
f 252/249/219 251/248/219 250/250/219
l 50 47
l 46 48
l 48 49
l 49 50
