# Blender v3.1.0 OBJ File: 'untitled.blend'
# www.blender.org
mtllib MetalPillar.mtl
o MetalPillar_mesh.007
v 0.042403 -1.986721 0.045165
v -0.042403 -1.986721 0.045165
v 0.042403 -1.986721 -0.045165
v -0.042403 -1.986721 -0.045165
v 0.042403 1.986887 -0.048184
v -0.042403 1.986887 -0.048184
v -0.042403 1.986594 0.046126
v 0.042403 1.986594 0.046126
v 0.038392 1.981136 0.041042
v 0.038392 -1.981550 -0.038739
v 0.038392 1.981945 -0.040014
v 0.038392 -1.981550 0.038739
v -0.038392 1.981945 -0.040014
v -0.038392 -1.981550 -0.038739
v -0.038392 1.981136 0.041042
v -0.038392 -1.981550 0.038739
v 0.042403 -1.981550 0.038739
v 0.042403 -1.981550 -0.038739
v 0.042403 1.981945 -0.040014
v 0.042403 1.981136 0.041042
v -0.042403 -1.981550 -0.038739
v -0.042403 -1.981550 0.038739
v -0.042403 1.981136 0.041042
v -0.042403 1.981945 -0.040014
vt 0.879984 0.115363
vt 0.879984 0.095865
vt 0.885660 0.095865
vt 0.885660 0.115363
vt 0.879985 0.137010
vt 0.879985 0.117513
vt 0.885660 0.117513
vt 0.885660 0.137010
vt 0.850128 0.997251
vt 0.844453 0.997251
vt 0.844454 0.000000
vt 0.850129 0.000000
vt 0.000000 0.000074
vt 0.007195 0.001447
vt 0.010455 0.998699
vt 0.001361 1.000000
vt 0.423218 0.000000
vt 0.543234 0.000000
vt 0.543233 0.999926
vt 0.423218 0.999926
vt 0.670033 0.000204
vt 0.666773 0.997455
vt 0.557128 0.997455
vt 0.555324 0.000000
vt 1.000000 0.025884
vt 1.000000 0.048616
vt 0.879985 0.048616
vt 0.879985 0.025884
vt 0.814597 0.997455
vt 0.808922 0.997455
vt 0.808922 0.000000
vt 0.814597 0.000000
vt 0.826687 0.997455
vt 0.826688 0.000000
vt 0.832363 0.000000
vt 0.832363 0.997455
vt 0.885660 0.050766
vt 0.885660 0.071165
vt 0.879985 0.071165
vt 0.879985 0.050766
vt 0.291113 0.000000
vt 0.411128 0.000000
vt 0.411128 1.000000
vt 0.291112 1.000000
vt 0.879985 0.073315
vt 0.885660 0.073315
vt 0.885660 0.093715
vt 0.879985 0.093715
vt 0.795028 0.997455
vt 0.685383 0.997455
vt 0.682123 0.000204
vt 0.796832 0.000000
vt 0.862219 0.997251
vt 0.862219 0.000000
vt 0.867895 0.000000
vt 0.867894 0.997251
vt 0.121904 0.001244
vt 0.133466 0.000000
vt 0.129195 1.000000
vt 0.120100 0.998699
vt 0.279022 0.000074
vt 0.157118 0.001244
vt 0.145556 0.000000
vt 0.271827 0.001447
vt 0.277662 1.000000
vt 0.149828 1.000000
vt 0.158923 0.998699
vt 0.268567 0.998699
vt 0.879984 0.000000
vt 1.000000 0.000000
vt 1.000000 0.023734
vt 0.879984 0.023734
vn 0.0000 1.0000 0.0000
vn 0.0000 0.0006 -1.0000
vn -1.0000 0.0000 0.0000
vn 0.0000 -0.0002 1.0000
vn 1.0000 0.0000 0.0000
vn 0.0000 -1.0000 0.0000
vn 0.0000 0.0003 1.0000
vn 0.0000 -1.0000 -0.0100
vn 0.0000 -0.0008 -1.0000
vn 0.0000 1.0000 0.0031
g MetalPillar_mesh.007_MetalPillar
usemtl MetalPillar
s 1
f 21/1/1 22/2/1 16/3/1 14/4/1
f 10/5/1 12/6/1 17/7/1 18/8/1
f 9/9/2 20/10/2 17/11/2 12/12/2
f 7/13/3 23/14/3 22/15/3 2/16/3
f 2/17/4 1/18/4 8/19/4 7/20/4
f 9/21/5 12/22/5 10/23/5 11/24/5
f 2/25/6 4/26/6 3/27/6 1/28/6
f 13/29/7 24/30/7 21/31/7 14/32/7
f 11/33/7 10/34/7 18/35/7 19/36/7
f 9/37/8 11/38/8 19/39/8 20/40/8
f 3/41/9 4/42/9 6/43/9 5/44/9
f 15/45/8 23/46/8 24/47/8 13/48/8
f 14/49/3 16/50/3 15/51/3 13/52/3
f 15/53/2 16/54/2 22/55/2 23/56/2
f 24/57/3 6/58/3 4/59/3 21/60/3
f 8/61/5 19/62/5 5/63/5
f 19/62/5 8/61/5 20/64/5
f 1/65/5 3/66/5 18/67/5
f 1/65/5 18/67/5 17/68/5
f 4/59/3 2/16/3 22/15/3
f 8/61/5 1/65/5 17/68/5 20/64/5
f 4/59/3 22/15/3 21/60/3
f 24/57/3 23/14/3 7/13/3
f 7/13/3 6/58/3 24/57/3
f 7/69/10 8/70/10 5/71/10 6/72/10
f 19/62/5 18/67/5 3/66/5 5/63/5
