# Blender v3.1.0 OBJ File: 'untitled.blend'
# www.blender.org
mtllib Palet.mtl
o Palet_mesh.011
v -0.421965 0.006518 0.313541
v 0.421005 0.006518 0.313541
v -0.421965 0.006518 0.390916
v 0.421005 0.006518 0.390916
v 0.421005 0.025631 0.313541
v -0.421965 0.025631 0.313541
v -0.421965 0.025631 0.390916
v 0.421005 0.025631 0.390916
v -0.421965 0.006518 0.165313
v 0.421005 0.006518 0.165313
v -0.421965 0.006518 0.242689
v 0.421005 0.006518 0.242689
v 0.421005 0.025631 0.165313
v -0.421965 0.025631 0.165313
v -0.421965 0.025631 0.242689
v 0.421005 0.025631 0.242689
v -0.421965 0.006518 0.019015
v 0.421005 0.006518 0.019015
v -0.421965 0.006518 0.096390
v 0.421005 0.006518 0.096390
v 0.421005 0.025631 0.019015
v -0.421965 0.025631 0.019015
v -0.421965 0.025631 0.096390
v 0.421005 0.025631 0.096390
v -0.421965 0.006518 -0.115504
v 0.421005 0.006518 -0.115504
v -0.421965 0.006518 -0.038128
v 0.421005 0.006518 -0.038128
v 0.421005 0.025631 -0.115504
v -0.421965 0.025631 -0.115504
v -0.421965 0.025631 -0.038128
v 0.421005 0.025631 -0.038128
v -0.421965 0.006518 -0.256852
v 0.421005 0.006518 -0.256852
v -0.421965 0.006518 -0.179476
v 0.421005 0.006518 -0.179476
v 0.421005 0.025631 -0.256852
v -0.421965 0.025631 -0.256852
v -0.421965 0.025631 -0.179476
v 0.421005 0.025631 -0.179476
v -0.421965 0.006518 -0.384906
v 0.421005 0.006518 -0.384906
v -0.421965 0.006518 -0.307531
v 0.421005 0.006518 -0.307531
v 0.421005 0.025631 -0.384906
v -0.421965 0.025631 -0.384906
v -0.421965 0.025631 -0.307531
v 0.421005 0.025631 -0.307531
v 0.036361 -0.045361 -0.311561
v -0.033906 -0.045361 -0.311561
v -0.033906 -0.045361 -0.381561
v 0.036361 -0.045361 -0.381561
v 0.036361 0.009004 -0.381561
v -0.033906 0.009004 -0.381561
v 0.036361 0.009004 -0.311561
v -0.033906 0.009004 -0.311561
v -0.019336 -0.002159 0.379854
v -0.019336 -0.002159 -0.372497
v 0.023647 -0.002159 0.379854
v 0.023647 -0.002159 -0.372497
v 0.023647 0.010575 0.379854
v 0.023647 0.010575 -0.372497
v -0.019336 0.010575 -0.372497
v -0.019336 0.010575 0.379854
v -0.347357 -0.045361 -0.311561
v -0.417624 -0.045361 -0.311561
v -0.417624 -0.045361 -0.381561
v -0.347357 -0.045361 -0.381561
v -0.347357 0.009004 -0.381561
v -0.417624 0.009004 -0.381561
v -0.347357 0.009004 -0.311561
v -0.417624 0.009004 -0.311561
v -0.403982 -0.002159 0.379854
v -0.403982 -0.002159 -0.372497
v -0.360999 -0.002159 0.379854
v -0.360999 -0.002159 -0.372497
v -0.360999 0.010575 0.379854
v -0.360999 0.010575 -0.372497
v -0.403982 0.010575 -0.372497
v -0.403982 0.010575 0.379854
v -0.417624 -0.045361 0.386972
v -0.347357 -0.045361 0.316972
v -0.347357 -0.045361 0.386972
v -0.417624 -0.045361 0.316972
v -0.347357 0.009004 0.316972
v -0.417624 0.009004 0.386972
v -0.347357 0.009004 0.386972
v -0.417624 0.009004 0.316972
v 0.036361 -0.045361 0.386972
v -0.033906 -0.045361 0.386972
v -0.033906 -0.045361 0.316972
v 0.036361 -0.045361 0.316972
v 0.036361 0.009004 0.316972
v -0.033906 0.009004 0.316972
v 0.036361 0.009004 0.386972
v -0.033906 0.009004 0.386972
v 0.363897 -0.002159 0.379854
v 0.363897 -0.002159 -0.372497
v 0.406879 -0.002159 0.379854
v 0.406879 -0.002159 -0.372497
v 0.406879 0.010575 0.379854
v 0.406879 0.010575 -0.372497
v 0.363897 0.010575 -0.372497
v 0.363897 0.010575 0.379854
v 0.415309 -0.045361 -0.311561
v 0.345042 -0.045361 -0.311561
v 0.345042 -0.045361 -0.381561
v 0.415309 -0.045361 -0.381561
v 0.415309 0.009004 -0.381561
v 0.345042 0.009004 -0.381561
v 0.415309 0.009004 -0.311561
v 0.345042 0.009004 -0.311561
v 0.345042 -0.045361 0.386972
v 0.415309 -0.045361 0.316972
v 0.415309 -0.045361 0.386972
v 0.345042 -0.045361 0.316972
v 0.415309 0.009004 0.316972
v 0.345042 0.009004 0.386972
v 0.415309 0.009004 0.386972
v 0.345042 0.009004 0.316972
vt 0.807900 0.000000
vt 0.807900 0.794796
vt 0.795091 0.794796
vt 0.795091 0.000000
vt 0.518549 0.794796
vt 0.518549 0.000000
vt 0.570404 0.000000
vt 0.570404 0.794796
vt 0.957332 0.000000
vt 0.957332 0.709356
vt 0.948798 0.709356
vt 0.948798 0.000000
vt 0.379137 0.927046
vt 0.379137 1.000000
vt 0.366328 1.000000
vt 0.366328 0.927046
vt 0.570404 0.794796
vt 0.570404 0.000000
vt 0.622259 0.000000
vt 0.622259 0.794796
vt 0.391946 0.927046
vt 0.391946 1.000000
vt 0.379137 1.000000
vt 0.379137 0.927046
vt 0.820709 0.000000
vt 0.820709 0.794796
vt 0.807900 0.794796
vt 0.807900 0.000000
vt 0.103710 0.794796
vt 0.103710 0.000000
vt 0.155565 0.000000
vt 0.155565 0.794796
vt 0.582935 0.861047
vt 0.582935 0.927046
vt 0.546502 0.927046
vt 0.546502 0.861047
vt 0.833518 0.000000
vt 0.833518 0.794796
vt 0.820709 0.794796
vt 0.820709 0.000000
vt 0.155564 0.794796
vt 0.155564 0.000000
vt 0.207419 0.000000
vt 0.207419 0.794796
vt 0.364335 0.861044
vt 0.364335 0.927046
vt 0.327901 0.927046
vt 0.327901 0.861044
vt 0.846327 0.000000
vt 0.846327 0.794796
vt 0.833518 0.794796
vt 0.833518 0.000000
vt 0.000000 0.794796
vt 0.000000 0.000000
vt 0.051855 0.000000
vt 0.051855 0.794796
vt 0.599376 0.794795
vt 0.599376 0.861047
vt 0.562942 0.861047
vt 0.562942 0.794795
vt 0.685052 0.787841
vt 0.685052 0.860795
vt 0.672243 0.860795
vt 0.672243 0.787841
vt 0.051855 0.794796
vt 0.051855 0.000000
vt 0.103710 0.000000
vt 0.103710 0.794796
vt 0.697861 0.787841
vt 0.697861 0.860795
vt 0.685052 0.860795
vt 0.685052 0.787841
vt 0.859136 0.000000
vt 0.859136 0.794796
vt 0.846327 0.794796
vt 0.846327 0.000000
vt 0.207420 0.794796
vt 0.207420 0.000000
vt 0.259275 0.000000
vt 0.259275 0.794796
vt 0.635809 0.794796
vt 0.635809 0.861050
vt 0.599376 0.861050
vt 0.599376 0.794796
vt 0.340710 0.927046
vt 0.340710 1.000000
vt 0.327901 1.000000
vt 0.327901 0.927046
vt 0.259275 0.794796
vt 0.259275 0.000000
vt 0.311130 0.000000
vt 0.311130 0.794796
vt 0.710669 0.787841
vt 0.710669 0.860795
vt 0.697861 0.860795
vt 0.697861 0.787841
vt 0.871945 0.000000
vt 0.871945 0.794796
vt 0.859136 0.794796
vt 0.859136 0.000000
vt 0.311129 0.794796
vt 0.311129 0.000000
vt 0.362984 0.000000
vt 0.362984 0.794796
vt 0.705045 0.861047
vt 0.705045 0.934001
vt 0.692236 0.934001
vt 0.692236 0.861047
vt 0.707935 0.709356
vt 0.707935 0.782310
vt 0.695126 0.782310
vt 0.695126 0.709356
vt 0.362984 0.794796
vt 0.362984 0.000000
vt 0.414839 0.000000
vt 0.414839 0.794796
vt 0.353519 0.927046
vt 0.353519 0.999997
vt 0.340710 0.999997
vt 0.340710 0.927046
vt 0.884754 0.000000
vt 0.884753 0.794796
vt 0.871945 0.794796
vt 0.871945 0.000000
vt 0.046911 0.794795
vt 0.046911 0.861047
vt 0.000000 0.861047
vt 0.000000 0.794795
vt 0.766286 0.000000
vt 0.766286 0.709356
vt 0.737480 0.709356
vt 0.737480 0.000000
vt 0.658692 0.709356
vt 0.658692 0.775610
vt 0.622259 0.775610
vt 0.622259 0.709356
vt 0.366328 0.927046
vt 0.366328 0.999997
vt 0.353519 0.999997
vt 0.353519 0.927046
vt 0.619369 0.861047
vt 0.619369 0.927046
vt 0.582935 0.927046
vt 0.582935 0.861047
vt 0.766286 0.000000
vt 0.795091 0.000000
vt 0.795091 0.709356
vt 0.766286 0.709356
vt 0.414841 0.794796
vt 0.414841 0.000000
vt 0.466694 0.000000
vt 0.466694 0.794796
vt 0.897563 0.000000
vt 0.897562 0.794796
vt 0.884754 0.794796
vt 0.884754 0.000000
vt 0.443164 0.927046
vt 0.443164 0.967572
vt 0.434631 0.967572
vt 0.434631 0.927046
vt 0.451698 0.927046
vt 0.451698 0.967572
vt 0.443164 0.967572
vt 0.443164 0.927046
vt 0.965866 0.000000
vt 0.965866 0.709356
vt 0.957332 0.709356
vt 0.957332 0.000000
vt 0.093822 0.794796
vt 0.093822 0.861050
vt 0.046911 0.861050
vt 0.046911 0.794796
vt 0.140736 0.861050
vt 0.093824 0.861050
vt 0.093824 0.794796
vt 0.140736 0.794796
vt 0.910372 0.000000
vt 0.910371 0.794796
vt 0.897563 0.794796
vt 0.897563 0.000000
vt 0.974399 0.000000
vt 0.974399 0.709356
vt 0.965866 0.709356
vt 0.965866 0.000000
vt 0.036433 0.861044
vt 0.036433 0.927298
vt 0.000000 0.927298
vt 0.000000 0.861044
vt 0.655802 0.861047
vt 0.655802 0.927046
vt 0.619369 0.927046
vt 0.619369 0.861047
vt 0.622257 0.000000
vt 0.651062 0.000000
vt 0.651062 0.709356
vt 0.622257 0.709356
vt 0.072867 0.861047
vt 0.072867 0.927298
vt 0.036433 0.927298
vt 0.036433 0.861047
vt 0.187647 0.794796
vt 0.187647 0.861050
vt 0.140736 0.861050
vt 0.140736 0.794796
vt 0.460232 0.927046
vt 0.460232 0.967571
vt 0.451698 0.967571
vt 0.451698 0.927046
vt 0.426097 0.927046
vt 0.426097 0.967571
vt 0.417564 0.967571
vt 0.417564 0.927046
vt 0.982933 0.000000
vt 0.982933 0.709356
vt 0.974399 0.709356
vt 0.974399 0.000000
vt 0.187649 0.794796
vt 0.234562 0.794796
vt 0.234562 0.861050
vt 0.187649 0.861050
vt 0.651066 0.000000
vt 0.679871 0.000000
vt 0.679871 0.709356
vt 0.651066 0.709356
vt 0.708675 0.000000
vt 0.708675 0.709356
vt 0.679871 0.709356
vt 0.679871 0.000000
vt 0.400768 0.861044
vt 0.400768 0.927046
vt 0.364335 0.927046
vt 0.364335 0.861044
vt 0.672243 0.794796
vt 0.672243 0.860795
vt 0.635809 0.860795
vt 0.635809 0.794796
vt 0.281471 0.794796
vt 0.281471 0.861050
vt 0.234558 0.861050
vt 0.234558 0.794796
vt 0.328384 0.794795
vt 0.328384 0.861047
vt 0.281471 0.861047
vt 0.281471 0.794795
vt 0.109300 0.861047
vt 0.109300 0.927298
vt 0.072867 0.927298
vt 0.072867 0.861047
vt 0.375294 0.861047
vt 0.328382 0.861047
vt 0.328382 0.794795
vt 0.375294 0.794795
vt 0.991466 0.000000
vt 0.991466 0.709356
vt 0.982933 0.709356
vt 0.982933 0.000000
vt 0.437202 0.861044
vt 0.437202 0.927046
vt 0.400768 0.927046
vt 0.400768 0.861044
vt 0.473635 0.861044
vt 0.473635 0.927046
vt 0.437202 0.927046
vt 0.437202 0.861044
vt 0.145734 0.861044
vt 0.145734 0.927298
vt 0.109300 0.927298
vt 0.109300 0.861044
vt 0.182167 0.861044
vt 0.182167 0.927298
vt 0.145734 0.927298
vt 0.145734 0.861044
vt 0.422207 0.861047
vt 0.375294 0.861047
vt 0.375294 0.794795
vt 0.422207 0.794795
vt 0.434631 0.927046
vt 0.434631 0.967571
vt 0.426097 0.967571
vt 0.426097 0.927046
vt 0.468765 0.927046
vt 0.468765 0.967571
vt 0.460232 0.967571
vt 0.460232 0.927046
vt 1.000000 0.000000
vt 1.000000 0.709356
vt 0.991466 0.709356
vt 0.991466 0.000000
vt 0.218601 0.861044
vt 0.218601 0.927298
vt 0.182167 0.927298
vt 0.182167 0.861044
vt 0.469118 0.861050
vt 0.422207 0.861050
vt 0.422207 0.794796
vt 0.469118 0.794796
vt 0.737480 0.000000
vt 0.737480 0.709356
vt 0.708675 0.709356
vt 0.708675 0.000000
vt 0.255034 0.861044
vt 0.255034 0.927298
vt 0.218601 0.927298
vt 0.218601 0.861044
vt 0.923180 0.000000
vt 0.923180 0.794796
vt 0.910371 0.794796
vt 0.910371 0.000000
vt 0.692236 0.861047
vt 0.692236 0.927046
vt 0.655802 0.927046
vt 0.655802 0.861047
vt 0.510069 0.861044
vt 0.510069 0.927046
vt 0.473635 0.927046
vt 0.473635 0.861044
vt 0.291468 0.861047
vt 0.291468 0.927298
vt 0.255034 0.927298
vt 0.255034 0.861047
vt 0.546502 0.861044
vt 0.546502 0.927046
vt 0.510069 0.927046
vt 0.510069 0.861044
vt 0.469120 0.794796
vt 0.516033 0.794796
vt 0.516033 0.861050
vt 0.469120 0.861050
vt 0.695126 0.709356
vt 0.695126 0.775355
vt 0.658692 0.775355
vt 0.658692 0.709356
vt 0.562942 0.794796
vt 0.562942 0.861050
vt 0.516029 0.861050
vt 0.516029 0.794796
vt 0.404755 0.927046
vt 0.404755 1.000000
vt 0.391946 1.000000
vt 0.391946 0.927046
vt 0.327901 0.861044
vt 0.327901 0.927298
vt 0.291468 0.927298
vt 0.291468 0.861044
vt 0.935989 0.000000
vt 0.935989 0.794796
vt 0.923180 0.794796
vt 0.923180 0.000000
vt 0.948799 0.000000
vt 0.948798 0.794796
vt 0.935989 0.794796
vt 0.935989 0.000000
vt 0.417563 0.927046
vt 0.417563 1.000000
vt 0.404755 1.000000
vt 0.404755 0.927046
vt 0.466694 0.794796
vt 0.466694 0.000000
vt 0.518547 0.000000
vt 0.518547 0.794796
vn 0.0000 0.0000 -1.0000
vn 0.0000 1.0000 0.0000
vn 1.0000 0.0000 0.0000
vn 0.0000 -1.0000 0.0000
vn -1.0000 0.0000 0.0000
vn 0.0000 0.0000 1.0000
g Palet_mesh.011_Palet
usemtl Palet
s 1
f 2/1/1 1/2/1 6/3/1 5/4/1
f 15/5/2 16/6/2 13/7/2 14/8/2
f 59/9/3 60/10/3 62/11/3 61/12/3
f 20/13/3 18/14/3 21/15/3 24/16/3
f 12/17/4 11/18/4 9/19/4 10/20/4
f 17/21/5 19/22/5 23/23/5 22/24/5
f 10/25/1 9/26/1 14/27/1 13/28/1
f 23/29/2 24/30/2 21/31/2 22/32/2
f 91/33/5 90/34/5 96/35/5 94/36/5
f 19/37/6 20/38/6 24/39/6 23/40/6
f 20/41/4 19/42/4 17/43/4 18/44/4
f 51/45/5 50/46/5 56/47/5 54/48/5
f 18/49/1 17/50/1 22/51/1 21/52/1
f 31/53/2 32/54/2 29/55/2 30/56/2
f 52/57/1 51/58/1 54/59/1 53/60/1
f 28/61/3 26/62/3 29/63/3 32/64/3
f 28/65/4 27/66/4 25/67/4 26/68/4
f 25/69/5 27/70/5 31/71/5 30/72/5
f 26/73/1 25/74/1 30/75/1 29/76/1
f 39/77/2 40/78/2 37/79/2 38/80/2
f 108/81/1 107/82/1 110/83/1 109/84/1
f 36/85/3 34/86/3 37/87/3 40/88/3
f 36/89/4 35/90/4 33/91/4 34/92/4
f 33/93/5 35/94/5 39/95/5 38/96/5
f 34/97/1 33/98/1 38/99/1 37/100/1
f 47/101/2 48/102/2 45/103/2 46/104/2
f 1/105/5 3/106/5 7/107/5 6/108/5
f 44/109/3 42/110/3 45/111/3 48/112/3
f 44/113/4 43/114/4 41/115/4 42/116/4
f 41/117/5 43/118/5 47/119/5 46/120/5
f 42/121/1 41/122/1 46/123/1 45/124/1
f 51/125/4 52/126/4 49/127/4 50/128/4
f 63/129/2 64/130/2 61/131/2 62/132/2
f 81/133/6 83/134/6 87/135/6 86/136/6
f 4/137/3 2/138/3 5/139/3 8/140/3
f 49/141/3 52/142/3 53/143/3 55/144/3
f 58/145/4 60/146/4 59/147/4 57/148/4
f 4/149/4 3/150/4 1/151/4 2/152/4
f 35/153/6 36/154/6 40/155/6 39/156/6
f 57/157/6 59/158/6 61/159/6 64/160/6
f 60/161/1 58/162/1 63/163/1 62/164/1
f 58/165/5 57/166/5 64/167/5 63/168/5
f 67/169/4 68/170/4 65/171/4 66/172/4
f 70/173/2 72/174/2 71/175/2 69/176/2
f 43/177/6 44/178/6 48/179/6 47/180/6
f 75/181/3 76/182/3 78/183/3 77/184/3
f 68/185/1 67/186/1 70/187/1 69/188/1
f 65/189/3 68/190/3 69/191/3 71/192/3
f 74/193/4 76/194/4 75/195/4 73/196/4
f 90/197/6 89/198/6 95/199/6 96/200/6
f 107/201/4 108/202/4 105/203/4 106/204/4
f 73/205/6 75/206/6 77/207/6 80/208/6
f 76/209/1 74/210/1 79/211/1 78/212/1
f 74/213/5 73/214/5 80/215/5 79/216/5
f 81/217/4 84/218/4 82/219/4 83/220/4
f 98/221/4 100/222/4 99/223/4 97/224/4
f 79/225/2 80/226/2 77/227/2 78/228/2
f 83/229/3 82/230/3 85/231/3 87/232/3
f 84/233/5 81/234/5 86/235/5 88/236/5
f 85/237/2 88/238/2 86/239/2 87/240/2
f 91/241/4 92/242/4 89/243/4 90/244/4
f 92/245/1 91/246/1 94/247/1 93/248/1
f 54/249/2 56/250/2 55/251/2 53/252/2
f 99/253/3 100/254/3 102/255/3 101/256/3
f 107/257/5 106/258/5 112/259/5 110/260/5
f 89/261/3 92/262/3 93/263/3 95/264/3
f 113/265/6 115/266/6 119/267/6 118/268/6
f 114/269/1 116/270/1 120/271/1 117/272/1
f 94/273/2 96/274/2 95/275/2 93/276/2
f 97/277/6 99/278/6 101/279/6 104/280/6
f 100/281/1 98/282/1 103/283/1 102/284/1
f 98/285/5 97/286/5 104/287/5 103/288/5
f 66/289/6 65/290/6 71/291/6 72/292/6
f 110/293/2 112/294/2 111/295/2 109/296/2
f 103/297/2 104/298/2 101/299/2 102/300/2
f 106/301/6 105/302/6 111/303/6 112/304/6
f 27/305/6 28/306/6 32/307/6 31/308/6
f 105/309/3 108/310/3 109/311/3 111/312/3
f 67/313/5 66/314/5 72/315/5 70/316/5
f 50/317/6 49/318/6 55/319/6 56/320/6
f 115/321/3 114/322/3 117/323/3 119/324/3
f 113/325/4 116/326/4 114/327/4 115/328/4
f 116/329/5 113/330/5 118/331/5 120/332/5
f 117/333/2 120/334/2 118/335/2 119/336/2
f 9/337/5 11/338/5 15/339/5 14/340/5
f 82/341/1 84/342/1 88/343/1 85/344/1
f 3/345/6 4/346/6 8/347/6 7/348/6
f 11/349/6 12/350/6 16/351/6 15/352/6
f 12/353/3 10/354/3 13/355/3 16/356/3
f 7/357/2 8/358/2 5/359/2 6/360/2
