# Blender v3.1.0 OBJ File: 'SM_AAAHousePlants.blend'
# www.blender.org
mtllib smallPot01.mtl
o smallPot01_SM_smallPot01
v 0.035640 0.020109 0.035640
v 0.035640 0.020109 -0.035640
v -0.035640 0.020109 0.035640
v -0.035640 0.020109 -0.035640
v 0.034395 0.020109 -0.034395
v 0.034395 0.026709 -0.034395
v 0.033016 0.020109 -0.035316
v 0.033016 0.026709 -0.035316
v 0.031390 0.020109 -0.035640
v 0.031390 0.026709 -0.035640
v -0.031390 0.020109 -0.035640
v -0.031390 0.026709 -0.035640
v -0.033016 0.020109 -0.035316
v -0.033016 0.026709 -0.035316
v -0.034395 0.020109 -0.034395
v -0.034395 0.026709 -0.034395
v 0.034395 0.026709 0.034395
v 0.034395 0.020109 0.034395
v 0.033016 0.026709 0.035316
v 0.033016 0.020109 0.035316
v 0.031390 0.026709 0.035640
v 0.031390 0.020109 0.035640
v -0.031390 0.026709 0.035640
v -0.031390 0.020109 0.035640
v -0.033016 0.026709 0.035316
v -0.033016 0.020109 0.035316
v -0.034395 0.026709 0.034395
v -0.034395 0.020109 0.034395
v -0.035316 0.020109 -0.033016
v -0.035316 0.026709 -0.033016
v -0.035640 0.020109 -0.031390
v -0.035640 0.026709 -0.031390
v -0.035640 0.020109 0.031390
v -0.035640 0.026709 0.031390
v -0.035316 0.020109 0.033016
v -0.035316 0.026709 0.033016
v -0.031817 -0.060291 -0.035600
v 0.031817 -0.060291 -0.035600
v -0.033265 -0.060291 -0.035312
v 0.033265 -0.060291 -0.035312
v -0.034492 -0.060291 -0.034492
v 0.034492 -0.060291 -0.034492
v -0.035312 -0.060291 -0.033265
v 0.035312 -0.060291 -0.033265
v -0.035600 -0.060291 -0.031817
v 0.035600 -0.060291 -0.031817
v -0.035600 -0.060291 0.031817
v 0.035600 -0.060291 0.031817
v -0.035312 -0.060291 0.033265
v 0.035312 -0.060291 0.033265
v -0.034492 -0.060291 0.034492
v 0.034492 -0.060291 0.034492
v -0.033265 -0.060291 0.035312
v 0.033265 -0.060291 0.035312
v -0.031817 -0.060291 0.035600
v 0.031817 -0.060291 0.035600
v 0.035316 0.026709 -0.033016
v 0.035316 0.020109 -0.033016
v 0.035640 0.026709 -0.031390
v 0.035640 0.020109 -0.031390
v 0.035640 0.026709 0.031390
v 0.035640 0.020109 0.031390
v 0.035316 0.026709 0.033016
v 0.035316 0.020109 0.033016
v -0.037376 0.026709 0.039676
v -0.038755 0.026709 0.038755
v -0.036601 -0.017259 0.036601
v -0.035299 -0.017259 0.037471
v -0.035750 0.026709 0.040000
v -0.033763 -0.017259 0.037776
v 0.035750 0.026709 0.040000
v 0.033763 -0.017259 0.037776
v 0.037376 0.026709 0.039676
v 0.035299 -0.017259 0.037471
v 0.038755 0.026709 0.038755
v 0.036601 -0.017259 0.036601
v -0.037471 -0.017259 0.035299
v -0.039676 0.026709 0.037376
v -0.037776 -0.017259 0.033763
v -0.040000 0.026709 0.035750
v -0.037776 -0.017259 -0.033763
v -0.040000 0.026709 -0.035750
v -0.037471 -0.017259 -0.035299
v -0.039676 0.026709 -0.037376
v -0.036601 -0.017259 -0.036601
v -0.038755 0.026709 -0.038755
v -0.035299 -0.017259 -0.037471
v -0.037376 0.026709 -0.039676
v -0.033763 -0.017259 -0.037776
v -0.035750 0.026709 -0.040000
v 0.033763 -0.017259 -0.037776
v 0.035750 0.026709 -0.040000
v 0.035299 -0.017259 -0.037471
v 0.037376 0.026709 -0.039676
v 0.036601 -0.017259 -0.036601
v 0.038755 0.026709 -0.038755
v 0.039676 0.026709 0.037376
v 0.037471 -0.017259 0.035299
v 0.040000 0.026709 0.035750
v 0.037776 -0.017259 0.033763
v 0.040000 0.026709 -0.035750
v 0.037776 -0.017259 -0.033763
v 0.039676 0.026709 -0.037376
v 0.037471 -0.017259 -0.035299
vt 0.971191 0.716553
vt 0.678223 0.716553
vt 0.971191 0.423828
vt 0.678223 0.423828
vt 0.321289 0.800049
vt 0.321289 0.828979
vt 0.314209 0.800049
vt 0.314209 0.828979
vt 0.306885 0.800049
vt 0.306885 0.828979
vt 0.031982 0.800049
vt 0.031982 0.828979
vt 0.024719 0.800049
vt 0.024719 0.828979
vt 0.017456 0.800049
vt 0.017456 0.828979
vt 0.319336 0.830933
vt 0.319336 0.859863
vt 0.312256 0.830933
vt 0.312256 0.859863
vt 0.304932 0.830933
vt 0.304932 0.859863
vt 0.029984 0.830933
vt 0.029984 0.859863
vt 0.022720 0.830933
vt 0.022720 0.859863
vt 0.015465 0.830933
vt 0.015465 0.859863
vt 0.317383 0.861938
vt 0.317383 0.890747
vt 0.310059 0.861938
vt 0.310059 0.890747
vt 0.302979 0.861938
vt 0.302979 0.890747
vt 0.028000 0.861938
vt 0.028000 0.890747
vt 0.020737 0.861938
vt 0.020737 0.890747
vt 0.013474 0.861938
vt 0.013474 0.890747
vt 0.382324 0.003418
vt 0.605469 0.003418
vt 0.377197 0.004395
vt 0.610352 0.004395
vt 0.372803 0.007324
vt 0.614746 0.007324
vt 0.369873 0.011719
vt 0.617676 0.011719
vt 0.368896 0.016602
vt 0.618652 0.016602
vt 0.368896 0.239746
vt 0.618652 0.239746
vt 0.369873 0.245117
vt 0.617676 0.245117
vt 0.372803 0.249512
vt 0.614746 0.249512
vt 0.377197 0.251953
vt 0.610352 0.251953
vt 0.382324 0.253418
vt 0.605469 0.253418
vt 0.025726 0.797974
vt 0.018463 0.797974
vt 0.018463 0.769043
vt 0.025726 0.769043
vt 0.032990 0.797974
vt 0.032990 0.769043
vt 0.307861 0.797974
vt 0.307861 0.769043
vt 0.315186 0.797974
vt 0.315186 0.769043
vt 0.322510 0.797974
vt 0.322510 0.769043
vt 0.335449 0.000977
vt 0.342529 0.000977
vt 0.333008 0.193848
vt 0.326172 0.193848
vt 0.323730 0.382812
vt 0.328125 0.000977
vt 0.317383 0.382324
vt 0.319336 0.193359
vt 0.015022 0.000977
vt 0.310791 0.382324
vt 0.023727 0.193359
vt 0.007759 0.000977
vt 0.032227 0.382324
vt 0.016861 0.193848
vt 0.000500 0.000977
vt 0.025772 0.382324
vt 0.010010 0.193848
vt 0.019318 0.382812
vt 0.644531 0.000977
vt 0.650879 0.000977
vt 0.660156 0.189453
vt 0.653320 0.189941
vt 0.669922 0.382324
vt 0.638184 0.000977
vt 0.662598 0.382324
vt 0.646484 0.189941
vt 0.359375 0.000977
vt 0.655273 0.382812
vt 0.351074 0.189941
vt 0.353027 0.000977
vt 0.342285 0.382812
vt 0.343994 0.189941
vt 0.346680 0.000977
vt 0.334961 0.382324
vt 0.337158 0.189453
vt 0.327637 0.382324
vt 0.632812 0.610596
vt 0.639160 0.610352
vt 0.648438 0.799072
vt 0.641602 0.799316
vt 0.657715 0.991859
vt 0.625977 0.610840
vt 0.650391 0.992119
vt 0.634766 0.799438
vt 0.347412 0.610840
vt 0.643555 0.992191
vt 0.339111 0.799438
vt 0.341064 0.610596
vt 0.330322 0.992195
vt 0.332031 0.799316
vt 0.334473 0.610352
vt 0.322998 0.992119
vt 0.325195 0.799072
vt 0.315674 0.991859
vt 0.335449 0.385254
vt 0.342529 0.385254
vt 0.333008 0.578125
vt 0.326172 0.577881
vt 0.323730 0.766724
vt 0.328125 0.384766
vt 0.317383 0.766479
vt 0.319336 0.577637
vt 0.015022 0.384766
vt 0.310791 0.766357
vt 0.023712 0.577637
vt 0.007755 0.385254
vt 0.032227 0.766357
vt 0.016861 0.577881
vt 0.000500 0.385254
vt 0.025772 0.766479
vt 0.010010 0.578125
vt 0.019318 0.766724
vt 0.997559 0.721680
vt 0.978516 0.702393
vt 0.999023 0.408691
vt 0.977051 0.709473
vt 0.979980 0.427734
vt 0.996094 0.728760
vt 0.998047 0.401367
vt 0.973145 0.715576
vt 0.978516 0.420410
vt 0.991699 0.734863
vt 0.993652 0.395508
vt 0.966797 0.719727
vt 0.974609 0.414551
vt 0.985840 0.738770
vt 0.987793 0.391113
vt 0.959961 0.720947
vt 0.968750 0.410156
vt 0.978516 0.740234
vt 0.980957 0.389648
vt 0.684570 0.719238
vt 0.961426 0.408691
vt 0.665527 0.738281
vt 0.667480 0.388184
vt 0.677734 0.717773
vt 0.686523 0.407227
vt 0.658203 0.736816
vt 0.660645 0.389160
vt 0.671387 0.713867
vt 0.679688 0.408691
vt 0.652344 0.732666
vt 0.654297 0.393555
vt 0.667480 0.707764
vt 0.673340 0.412598
vt 0.648438 0.726807
vt 0.650391 0.399414
vt 0.666016 0.700684
vt 0.669434 0.418457
vt 0.646973 0.719482
vt 0.648926 0.406250
vt 0.667969 0.425781
vn 0.0000 1.0000 0.0000
vn -0.5565 -0.0000 0.8308
vn -0.3863 0.0000 0.9224
vn -0.0079 0.0000 1.0000
vn 0.0079 -0.0000 1.0000
vn 0.3863 0.0000 0.9224
vn 0.5565 0.0000 0.8308
vn -0.5565 0.0000 -0.8308
vn -0.3863 -0.0000 -0.9224
vn -0.0079 0.0000 -1.0000
vn 0.0079 0.0000 -1.0000
vn 0.3863 0.0000 -0.9224
vn 0.5565 0.0000 -0.8308
vn 0.8308 -0.0000 0.5565
vn 0.8309 0.0000 0.5565
vn 0.9224 0.0000 0.3863
vn 1.0000 0.0000 0.0079
vn 1.0000 0.0000 -0.0079
vn 0.9224 0.0000 -0.3863
vn 0.8309 0.0000 -0.5565
vn 0.8308 0.0000 -0.5565
vn 0.0000 -1.0000 0.0000
vn -0.9224 -0.0000 0.3863
vn -0.8308 0.0000 0.5565
vn -0.8309 0.0000 0.5565
vn -1.0000 0.0000 0.0079
vn -1.0000 -0.0000 -0.0079
vn -0.9224 0.0000 -0.3863
vn -0.8309 0.0000 -0.5565
vn -0.8308 -0.0000 -0.5565
vn -0.3855 -0.0630 0.9206
vn -0.5533 -0.0711 0.8299
vn -0.3855 -0.0629 0.9205
vn -0.0079 -0.0472 0.9989
vn -0.3788 -0.0633 0.9233
vn 0.0079 -0.0472 0.9989
vn 0.3855 -0.0630 0.9205
vn 0.3855 -0.0629 0.9205
vn 0.5533 -0.0711 0.8299
vn 0.3788 -0.0631 0.9233
vn -0.9233 -0.0632 0.3788
vn -0.8299 -0.0711 0.5533
vn -0.9206 -0.0630 0.3855
vn -0.9989 -0.0472 0.0079
vn -0.9989 -0.0472 -0.0079
vn -0.9233 -0.0632 -0.3788
vn -0.9206 -0.0630 -0.3855
vn -0.8299 -0.0711 -0.5533
vn -0.9205 -0.0629 -0.3855
vn -0.3788 -0.0631 -0.9233
vn -0.5533 -0.0711 -0.8299
vn -0.3855 -0.0630 -0.9206
vn -0.0079 -0.0472 -0.9989
vn -0.3855 -0.0630 -0.9205
vn 0.0079 -0.0472 -0.9989
vn 0.3788 -0.0633 -0.9233
vn 0.3855 -0.0629 -0.9205
vn 0.5533 -0.0711 -0.8299
vn 0.3855 -0.0630 -0.9206
vn 0.9205 -0.0629 0.3855
vn 0.8299 -0.0711 0.5533
vn 0.9989 -0.0472 0.0079
vn 0.9233 -0.0632 0.3788
vn 0.9989 -0.0472 -0.0079
vn 0.9206 -0.0630 -0.3855
vn 0.9205 -0.0629 -0.3855
vn 0.8299 -0.0711 -0.5533
vn 0.9233 -0.0632 -0.3788
g smallPot01_SM_smallPot01_succulentPot01_Inst
usemtl succulentPot01_Inst
s 1
f 1/1/1 2/2/1 3/3/1
f 2/2/1 4/4/1 3/3/1
f 5/5/2 6/6/2 7/7/3
f 6/6/2 8/8/3 7/7/3
f 7/7/3 8/8/3 9/9/4
f 8/8/3 10/10/4 9/9/4
f 11/11/5 9/9/4 10/10/4
f 12/12/5 11/11/5 10/10/4
f 11/11/5 12/12/5 13/13/6
f 12/12/5 14/14/6 13/13/6
f 13/13/6 14/14/6 15/15/7
f 14/14/6 16/16/7 15/15/7
f 17/17/8 18/18/8 19/19/9
f 18/18/8 20/20/9 19/19/9
f 19/19/9 20/20/9 21/21/10
f 20/20/9 22/22/10 21/21/10
f 21/21/10 22/22/10 23/23/11
f 22/22/10 24/24/11 23/23/11
f 25/25/12 23/23/11 24/24/11
f 26/26/12 25/25/12 24/24/11
f 27/27/13 25/25/12 26/26/12
f 28/28/13 27/27/13 26/26/12
f 15/29/14 16/30/15 29/31/16
f 16/30/15 30/32/16 29/31/16
f 29/31/16 30/32/16 31/33/17
f 30/32/16 32/34/17 31/33/17
f 33/35/18 31/33/17 32/34/17
f 34/36/18 33/35/18 32/34/17
f 33/35/18 34/36/18 35/37/19
f 34/36/18 36/38/19 35/37/19
f 35/37/19 36/38/19 28/39/20
f 36/38/19 27/40/21 28/39/20
f 37/41/22 38/42/22 39/43/22
f 38/42/22 40/44/22 39/43/22
f 39/43/22 40/44/22 41/45/22
f 40/44/22 42/46/22 41/45/22
f 41/45/22 42/46/22 43/47/22
f 42/46/22 44/48/22 43/47/22
f 43/47/22 44/48/22 45/49/22
f 44/48/22 46/50/22 45/49/22
f 45/49/22 46/50/22 47/51/22
f 46/50/22 48/52/22 47/51/22
f 47/51/22 48/52/22 49/53/22
f 48/52/22 50/54/22 49/53/22
f 49/53/22 50/54/22 51/55/22
f 50/54/22 52/56/22 51/55/22
f 51/55/22 52/56/22 53/57/22
f 52/56/22 54/58/22 53/57/22
f 53/57/22 54/58/22 55/59/22
f 54/58/22 56/60/22 55/59/22
f 57/61/23 6/62/24 5/63/25
f 58/64/23 57/61/23 5/63/25
f 59/65/26 57/61/23 58/64/23
f 60/66/26 59/65/26 58/64/23
f 59/65/26 60/66/26 61/67/27
f 60/66/26 62/68/27 61/67/27
f 61/67/27 62/68/27 63/69/28
f 62/68/27 64/70/28 63/69/28
f 63/69/28 64/70/28 17/71/29
f 64/70/28 18/72/30 17/71/29
f 65/73/31 66/74/32 67/75/32
f 68/76/33 65/73/31 67/75/32
f 67/75/32 51/77/32 68/76/33
f 69/78/34 65/73/31 68/76/33
f 51/77/32 53/79/35 68/76/33
f 70/80/34 69/78/34 68/76/33
f 68/76/33 53/79/35 70/80/34
f 71/81/36 69/78/34 70/80/34
f 53/79/35 55/82/34 70/80/34
f 72/83/36 71/81/36 70/80/34
f 70/80/34 55/82/34 72/83/36
f 73/84/37 71/81/36 72/83/36
f 55/82/34 56/85/36 72/83/36
f 74/86/38 73/84/37 72/83/36
f 72/83/36 56/85/36 74/86/38
f 75/87/39 73/84/37 74/86/38
f 56/85/36 54/88/40 74/86/38
f 76/89/39 75/87/39 74/86/38
f 74/86/38 54/88/40 76/89/39
f 54/88/40 52/90/39 76/89/39
f 49/91/41 51/92/42 67/93/42
f 77/94/43 49/91/41 67/93/42
f 67/93/42 66/95/42 77/94/43
f 47/96/44 49/91/41 77/94/43
f 66/95/42 78/97/43 77/94/43
f 79/98/44 47/96/44 77/94/43
f 77/94/43 78/97/43 79/98/44
f 45/99/45 47/96/44 79/98/44
f 78/97/43 80/100/44 79/98/44
f 81/101/45 45/99/45 79/98/44
f 79/98/44 80/100/44 81/101/45
f 43/102/46 45/99/45 81/101/45
f 80/100/44 82/103/45 81/101/45
f 83/104/47 43/102/46 81/101/45
f 81/101/45 82/103/45 83/104/47
f 41/105/48 43/102/46 83/104/47
f 82/103/45 84/106/49 83/104/47
f 85/107/48 41/105/48 83/104/47
f 83/104/47 84/106/49 85/107/48
f 84/106/49 86/108/48 85/107/48
f 39/109/50 41/110/51 85/111/51
f 87/112/52 39/109/50 85/111/51
f 85/111/51 86/113/51 87/112/52
f 37/114/53 39/109/50 87/112/52
f 86/113/51 88/115/54 87/112/52
f 89/116/53 37/114/53 87/112/52
f 87/112/52 88/115/54 89/116/53
f 38/117/55 37/114/53 89/116/53
f 88/115/54 90/118/53 89/116/53
f 91/119/55 38/117/55 89/116/53
f 89/116/53 90/118/53 91/119/55
f 40/120/56 38/117/55 91/119/55
f 90/118/53 92/121/55 91/119/55
f 93/122/57 40/120/56 91/119/55
f 91/119/55 92/121/55 93/122/57
f 42/123/58 40/120/56 93/122/57
f 92/121/55 94/124/59 93/122/57
f 95/125/58 42/123/58 93/122/57
f 93/122/57 94/124/59 95/125/58
f 94/124/59 96/126/58 95/125/58
f 97/127/60 75/128/61 76/129/61
f 98/130/60 97/127/60 76/129/61
f 76/129/61 52/131/61 98/130/60
f 99/132/62 97/127/60 98/130/60
f 52/131/61 50/133/63 98/130/60
f 100/134/62 99/132/62 98/130/60
f 98/130/60 50/133/63 100/134/62
f 101/135/64 99/132/62 100/134/62
f 50/133/63 48/136/62 100/134/62
f 102/137/64 101/135/64 100/134/62
f 100/134/62 48/136/62 102/137/64
f 103/138/65 101/135/64 102/137/64
f 48/136/62 46/139/64 102/137/64
f 104/140/66 103/138/65 102/137/64
f 102/137/64 46/139/64 104/140/66
f 96/141/67 103/138/65 104/140/66
f 46/139/64 44/142/68 104/140/66
f 95/143/67 96/141/67 104/140/66
f 104/140/66 44/142/68 95/143/67
f 44/142/68 42/144/67 95/143/67
f 90/145/1 12/146/1 92/147/1
f 14/148/1 12/146/1 90/145/1
f 12/146/1 10/149/1 92/147/1
f 88/150/1 14/148/1 90/145/1
f 94/151/1 92/147/1 10/149/1
f 16/152/1 14/148/1 88/150/1
f 8/153/1 94/151/1 10/149/1
f 86/154/1 16/152/1 88/150/1
f 96/155/1 94/151/1 8/153/1
f 30/156/1 16/152/1 86/154/1
f 6/157/1 96/155/1 8/153/1
f 84/158/1 30/156/1 86/154/1
f 103/159/1 96/155/1 6/157/1
f 32/160/1 30/156/1 84/158/1
f 57/161/1 103/159/1 6/157/1
f 82/162/1 32/160/1 84/158/1
f 101/163/1 103/159/1 57/161/1
f 34/164/1 32/160/1 82/162/1
f 59/165/1 101/163/1 57/161/1
f 80/166/1 34/164/1 82/162/1
f 101/163/1 59/165/1 99/167/1
f 34/164/1 80/166/1 36/168/1
f 59/165/1 61/169/1 99/167/1
f 80/166/1 78/170/1 36/168/1
f 97/171/1 99/167/1 61/169/1
f 36/168/1 78/170/1 27/172/1
f 63/173/1 97/171/1 61/169/1
f 78/170/1 66/174/1 27/172/1
f 75/175/1 97/171/1 63/173/1
f 27/172/1 66/174/1 25/176/1
f 17/177/1 75/175/1 63/173/1
f 66/174/1 65/178/1 25/176/1
f 73/179/1 75/175/1 17/177/1
f 25/176/1 65/178/1 23/180/1
f 19/181/1 73/179/1 17/177/1
f 65/178/1 69/182/1 23/180/1
f 71/183/1 73/179/1 19/181/1
f 21/184/1 23/180/1 69/182/1
f 21/184/1 71/183/1 19/181/1
f 71/183/1 21/184/1 69/182/1
