# Blender v3.1.0 OBJ File: 'untitled.blend'
# www.blender.org
mtllib Stant.mtl
o Stant_mesh.014
v 0.208319 0.069264 0.154024
v -0.287538 0.079199 0.069554
v 0.211546 0.069247 0.059602
v -0.290765 0.079216 0.163976
v 0.208914 0.099090 0.154039
v -0.286943 0.109025 0.069569
v -0.290170 0.109042 0.163991
v 0.212141 0.099073 0.059617
v 0.157485 -0.208850 -0.148545
v 0.186174 -0.208133 -0.150142
v 0.162015 -0.210741 -0.120380
v 0.190703 -0.210024 -0.121976
v 0.159678 0.075021 -0.071609
v 0.188367 0.075737 -0.073206
v 0.183837 0.075612 -0.101372
v 0.155149 0.074895 -0.099775
v -0.240282 -0.208850 -0.148564
v -0.265678 -0.211818 -0.121217
v -0.269003 -0.208133 -0.149399
v -0.236957 -0.212535 -0.120383
v -0.251581 0.075737 -0.072665
v -0.226186 0.074895 -0.100012
v -0.254906 0.075612 -0.100846
v -0.222860 0.075021 -0.071830
v 0.207602 0.074228 0.053124
v -0.288888 0.074228 -0.030103
v 0.210147 0.074228 -0.041319
v -0.291433 0.074228 0.064339
v 0.207602 0.104060 0.053124
v -0.288888 0.104060 -0.030103
v -0.291433 0.104060 0.064339
v 0.210147 0.104060 -0.041319
v 0.205315 0.074228 -0.043498
v -0.289361 0.074228 -0.141391
v 0.209532 0.074228 -0.137881
v -0.293579 0.074228 -0.047008
v 0.205315 0.104060 -0.043498
v -0.289361 0.104060 -0.141391
v -0.293579 0.104060 -0.047008
v 0.209532 0.104060 -0.137881
v 0.157485 -0.211466 0.150399
v 0.186174 -0.211319 0.148655
v 0.162015 -0.203919 0.177601
v 0.190703 -0.203772 0.175857
v 0.159678 0.081863 0.128947
v 0.188367 0.082010 0.127203
v 0.183837 0.072560 0.100669
v 0.155149 0.072413 0.102413
v -0.240282 -0.211472 0.150381
v -0.265678 -0.205213 0.177168
v -0.269003 -0.211072 0.149356
v -0.236957 -0.205613 0.178192
v -0.251581 0.082189 0.127713
v -0.226186 0.072334 0.102189
v -0.254906 0.072734 0.101165
v -0.222860 0.081789 0.128738
v 0.133047 0.072171 -0.138132
v 0.161735 0.073865 -0.137690
v 0.137576 0.044081 -0.135333
v 0.166265 0.045775 -0.134890
v 0.135240 0.043307 0.154560
v 0.163928 0.045000 0.155002
v 0.159399 0.072756 0.150214
v 0.130710 0.071063 0.149772
v -0.205218 0.078565 -0.138135
v -0.230614 0.051104 -0.136534
v -0.233939 0.079507 -0.137567
v -0.201893 0.050163 -0.137103
v -0.216517 0.050842 0.155092
v -0.191122 0.077672 0.149732
v -0.219842 0.078614 0.150301
v -0.187796 0.049900 0.154523
vt 0.349844 0.617052
vt 0.234230 0.623534
vt 0.234231 0.006483
vt 0.349844 0.000000
vt 0.999396 0.480701
vt 0.965419 0.484245
vt 0.965420 0.448718
vt 0.999396 0.445174
vt 0.308732 0.742552
vt 0.308732 0.858893
vt 0.272094 0.858766
vt 0.272094 0.742425
vt 0.539992 0.623983
vt 0.539992 0.978754
vt 0.504725 0.979167
vt 0.504725 0.624396
vt 0.270890 0.858766
vt 0.234252 0.858893
vt 0.234252 0.742552
vt 0.270890 0.742425
vt 0.777740 0.617143
vt 0.777740 0.000016
vt 0.814378 0.000000
vt 0.814378 0.617127
vt 0.999964 0.996314
vt 0.965125 0.999833
vt 0.965126 0.964317
vt 0.999964 0.960798
vt 0.999090 0.489032
vt 0.999090 0.524559
vt 0.965419 0.520983
vt 0.965419 0.485457
vt 0.035281 0.624661
vt 0.035281 0.976421
vt 0.000000 0.976397
vt 0.000000 0.624638
vt 0.655786 0.628236
vt 0.655786 0.984058
vt 0.621042 0.980588
vt 0.621459 0.622312
vt 0.351048 0.622304
vt 0.386315 0.622628
vt 0.386315 0.980779
vt 0.351049 0.980456
vt 0.549694 0.985509
vt 0.549274 0.627828
vt 0.583888 0.623983
vt 0.583888 0.979211
vt 0.236669 0.865434
vt 0.270890 0.860104
vt 0.270890 0.895628
vt 0.236668 0.900958
vt 0.467034 0.004396
vt 0.467034 0.621093
vt 0.351048 0.616697
vt 0.351048 0.000000
vt 0.737070 0.978193
vt 0.702006 0.979517
vt 0.702795 0.624311
vt 0.737070 0.618347
vt 0.964431 0.000977
vt 0.964431 0.361698
vt 0.929137 0.360721
vt 0.929136 0.000000
vt 0.855814 0.973400
vt 0.855025 0.618194
vt 0.890088 0.619518
vt 0.890088 0.979364
vt 0.583888 0.617013
vt 0.468239 0.622772
vt 0.468239 0.005759
vt 0.583888 0.000000
vt 0.115895 0.006386
vt 0.115895 0.623426
vt 0.000000 0.617040
vt 0.000000 0.000000
vt 0.815583 0.000009
vt 0.852245 0.000000
vt 0.852245 0.616609
vt 0.815582 0.616619
vt 0.929136 0.959517
vt 0.929136 0.843289
vt 0.965796 0.843359
vt 0.965796 0.959587
vt 0.776535 0.616971
vt 0.739873 0.616964
vt 0.739873 0.000000
vt 0.776535 0.000007
vt 0.890089 0.000000
vt 0.890089 0.616965
vt 0.853449 0.616983
vt 0.853449 0.000018
vt 0.700802 0.616697
vt 0.585093 0.621100
vt 0.585093 0.004404
vt 0.700802 0.000000
vt 0.233026 0.005768
vt 0.233026 0.622781
vt 0.117099 0.617013
vt 0.117099 0.000000
vt 0.891293 0.616609
vt 0.891293 0.000000
vt 0.927932 0.000024
vt 0.927932 0.616633
vt 0.234230 0.741156
vt 0.234230 0.624745
vt 0.270890 0.624803
vt 0.270890 0.741214
vt 0.738668 0.617136
vt 0.702006 0.617130
vt 0.702006 0.000000
vt 0.738668 0.000006
vt 0.929136 0.842077
vt 0.929136 0.725850
vt 0.965796 0.725779
vt 0.965796 0.842007
vt 0.963921 0.996314
vt 0.929136 1.000000
vt 0.929137 0.964484
vt 0.963921 0.960798
vt 0.852245 0.978109
vt 0.817167 0.979489
vt 0.817957 0.623852
vt 0.852245 0.617830
vt 0.468239 0.623983
vt 0.503520 0.624006
vt 0.503520 0.979329
vt 0.468239 0.979307
vt 0.965419 0.398432
vt 0.965419 0.362909
vt 0.998673 0.368183
vt 0.998673 0.403705
vt 0.036486 0.624637
vt 0.071772 0.625233
vt 0.071772 0.975887
vt 0.036486 0.975291
vt 0.151713 0.630291
vt 0.151713 0.985519
vt 0.117099 0.981674
vt 0.117518 0.623993
vt 0.273958 0.865345
vt 0.308732 0.860104
vt 0.308732 0.895630
vt 0.273958 0.900871
vt 0.274542 0.979382
vt 0.274542 0.943856
vt 0.308732 0.949023
vt 0.308732 0.984549
vt 0.700802 0.977473
vt 0.665505 0.978425
vt 0.665506 0.623264
vt 0.700802 0.622312
vt 0.776535 0.979078
vt 0.741555 0.980599
vt 0.742339 0.624341
vt 0.776535 0.618182
vt 0.224683 0.976117
vt 0.189415 0.977414
vt 0.189416 0.625290
vt 0.224683 0.623993
vt 0.432683 0.984193
vt 0.432265 0.625845
vt 0.467034 0.622304
vt 0.467034 0.978196
vt 1.000000 0.408449
vt 1.000000 0.443963
vt 0.965419 0.440431
vt 0.965419 0.404917
vt 0.236668 0.979494
vt 0.236668 0.943981
vt 0.271448 0.947711
vt 0.271448 0.983225
vt 0.349844 0.624745
vt 0.349844 0.974558
vt 0.314558 0.975115
vt 0.314558 0.625303
vt 0.422288 0.628301
vt 0.422288 0.984193
vt 0.387519 0.980652
vt 0.387937 0.622304
vt 0.152917 0.977249
vt 0.152918 0.623993
vt 0.188211 0.624746
vt 0.188211 0.978002
vt 0.585511 0.984058
vt 0.585093 0.625781
vt 0.619837 0.622311
vt 0.619837 0.978133
vt 0.236669 0.907254
vt 0.271023 0.902169
vt 0.271023 0.937684
vt 0.236668 0.942770
vt 0.274304 0.937597
vt 0.274304 0.902083
vt 0.308732 0.907131
vt 0.308732 0.942645
vt 0.115895 0.974838
vt 0.080603 0.975639
vt 0.080603 0.625438
vt 0.115895 0.624637
vt 0.893735 0.974102
vt 0.892951 0.617845
vt 0.927932 0.619365
vt 0.927932 0.980261
vt 0.777740 0.976157
vt 0.777740 0.618354
vt 0.813010 0.619587
vt 0.813010 0.977390
vt 0.929928 0.718546
vt 0.929136 0.362909
vt 0.964215 0.364289
vt 0.964215 0.724568
vt 0.313353 0.624745
vt 0.313353 0.741157
vt 0.276694 0.741214
vt 0.276694 0.624803
vn 0.0199 0.9998 0.0005
vn 0.0210 -0.9643 0.2640
vn 0.9992 -0.0200 0.0342
vn -0.0590 0.9983 0.0034
vn -0.9992 0.0200 -0.0342
vn 0.0199 -0.0009 0.9998
vn 0.0210 -0.0958 -0.9952
vn -0.0250 0.9431 -0.3316
vn -0.0590 -0.1669 -0.9842
vn -0.9869 0.0191 0.1603
vn 0.0590 -0.9983 -0.0022
vn 0.9869 0.1612 0.0085
vn -0.0211 -0.9778 0.2085
vn -0.0000 -1.0000 0.0000
vn 0.9925 -0.0665 -0.1027
vn -0.0328 -0.9995 0.0007
vn -0.9925 0.0665 0.1027
vn 0.0000 1.0000 0.0000
vn -0.0199 -0.9998 -0.0005
vn 0.0070 0.0000 -1.0000
vn 0.9990 0.0000 0.0446
vn -0.0225 0.0000 -0.9997
vn 0.0225 0.0000 0.9997
vn -0.0070 0.0000 1.0000
vn 0.9996 0.0000 0.0269
vn -0.0199 0.0009 -0.9998
vn -0.9990 0.0000 -0.0446
vn 0.0210 -0.9973 -0.0703
vn 0.9925 -0.0288 -0.1189
vn 0.0590 0.1680 0.9840
vn 0.0252 0.9407 -0.3382
vn 0.0590 -0.1675 0.9841
vn -0.9869 -0.1612 -0.0085
vn -0.0211 -0.0388 -0.9990
vn 0.0252 0.1729 0.9846
vn 0.0328 0.9995 0.0015
vn 0.9925 0.1125 -0.0481
vn 0.0328 -0.1689 -0.9851
vn 0.9869 0.0351 -0.1576
vn -0.0250 0.1660 0.9858
vn -0.0250 0.9997 -0.0004
vn -0.0590 0.1686 -0.9839
vn -0.9869 -0.0351 0.1576
vn -0.0328 -0.1648 0.9858
vn 0.9869 -0.0191 -0.1603
vn -0.0211 -0.9917 -0.1272
vn 0.0252 0.9997 -0.0074
vn 0.0328 0.1670 -0.9854
vn -0.9925 -0.1125 0.0481
vn -0.0328 0.1711 0.9847
vn -0.9925 0.0288 0.1189
vn -0.9996 0.0000 -0.0269
g Stant_mesh.014_Stant
usemtl Stant
s 1
f 5/1/1 8/2/1 6/3/1 7/4/1
f 42/5/2 44/6/2 43/7/2 41/8/2
f 1/9/3 3/10/3 8/11/3 5/12/3
f 63/13/4 58/14/4 57/15/4 64/16/4
f 6/17/5 2/18/5 4/19/5 7/20/5
f 4/21/6 1/22/6 5/23/6 7/24/6
f 58/25/7 60/26/7 59/27/7 57/28/7
f 47/29/8 48/30/8 45/31/8 46/32/8
f 47/33/9 42/34/9 41/35/9 48/36/9
f 48/37/10 41/38/10 43/39/10 45/40/10
f 59/41/11 60/42/11 62/43/11 61/44/11
f 62/45/12 60/46/12 58/47/12 63/48/12
f 49/49/13 52/50/13 50/51/13 51/52/13
f 33/53/14 36/54/14 34/55/14 35/56/14
f 52/57/15 49/58/15 54/59/15 56/60/15
f 69/61/16 66/62/16 68/63/16 72/64/16
f 55/65/17 51/66/17 50/67/17 53/68/17
f 29/69/18 32/70/18 30/71/18 31/72/18
f 1/73/19 4/74/19 2/75/19 3/76/19
f 40/77/20 35/78/20 34/79/20 38/80/20
f 33/81/21 35/82/21 40/83/21 37/84/21
f 32/85/22 27/86/22 26/87/22 30/88/22
f 28/89/23 25/90/23 29/91/23 31/92/23
f 37/93/18 40/94/18 38/95/18 39/96/18
f 25/97/14 28/98/14 26/99/14 27/100/14
f 36/101/24 33/102/24 37/103/24 39/104/24
f 25/105/25 27/106/25 32/107/25 29/108/25
f 8/109/26 3/110/26 2/111/26 6/112/26
f 34/113/27 36/114/27 39/115/27 38/116/27
f 10/117/28 12/118/28 11/119/28 9/120/28
f 20/121/29 17/122/29 22/123/29 24/124/29
f 43/125/30 44/126/30 46/127/30 45/128/30
f 53/129/31 56/130/31 54/131/31 55/132/31
f 11/133/32 12/134/32 14/135/32 13/136/32
f 64/137/33 57/138/33 59/139/33 61/140/33
f 65/141/34 68/142/34 66/143/34 67/144/34
f 69/145/35 72/146/35 70/147/35 71/148/35
f 65/149/36 67/150/36 71/151/36 70/152/36
f 68/153/37 65/154/37 70/155/37 72/156/37
f 49/157/38 51/158/38 55/159/38 54/160/38
f 14/161/39 12/162/39 10/163/39 15/164/39
f 63/165/40 64/166/40 61/167/40 62/168/40
f 15/169/41 16/170/41 13/171/41 14/172/41
f 15/173/42 10/174/42 9/175/42 16/176/42
f 16/177/43 9/178/43 11/179/43 13/180/43
f 21/181/44 18/182/44 20/183/44 24/184/44
f 46/185/45 44/186/45 42/187/45 47/188/45
f 17/189/46 20/190/46 18/191/46 19/192/46
f 21/193/47 24/194/47 22/195/47 23/196/47
f 17/197/48 19/198/48 23/199/48 22/200/48
f 71/201/49 67/202/49 66/203/49 69/204/49
f 53/205/50 50/206/50 52/207/50 56/208/50
f 23/209/51 19/210/51 18/211/51 21/212/51
f 26/213/52 28/214/52 31/215/52 30/216/52
