# Blender v3.1.0 OBJ File: 'untitled.blend'
# www.blender.org
mtllib TableShort.mtl
o TableShort_mesh.028
v -0.945108 -0.324302 -0.303804
v 0.941885 -0.345879 0.321030
v -0.928096 -0.324302 0.368373
v 0.924873 -0.345879 -0.351147
v -0.911507 -0.315617 -0.269803
v 0.908420 -0.336504 0.287025
v 0.893171 -0.336504 -0.315484
v -0.896258 -0.315617 0.332707
v 0.942293 -0.304643 0.321019
v -0.927688 -0.283066 0.368362
v 0.925281 -0.304643 -0.351157
v -0.944700 -0.283066 -0.303814
v 0.908760 -0.304298 0.287017
v -0.895918 -0.283411 0.332698
v 0.893511 -0.304298 -0.315493
v -0.911167 -0.283411 -0.269812
v -0.909953 -0.478826 0.390217
v -0.954723 -0.478826 0.391418
v -0.911223 -0.478826 0.342864
v -0.955994 -0.478826 0.344065
v -0.911223 0.176638 0.342864
v -0.955994 0.176638 0.344065
v -0.954723 0.176638 0.391418
v -0.909953 0.176638 0.390217
v -0.927984 -0.478826 -0.281961
v -0.972754 -0.478826 -0.280760
v -0.929254 -0.478826 -0.329314
v -0.974025 -0.478826 -0.328113
v -0.929254 0.176638 -0.329314
v -0.974025 0.176638 -0.328113
v -0.972754 0.176638 -0.280760
v -0.927984 0.176638 -0.281961
v -0.011171 -0.478826 -0.306039
v -0.055942 -0.478826 -0.304838
v -0.012442 -0.478826 -0.353392
v -0.057212 -0.478826 -0.352191
v -0.012442 0.176638 -0.353392
v -0.057212 0.176638 -0.352191
v -0.055942 0.176638 -0.304838
v -0.011171 0.176638 -0.306039
v 0.006846 -0.478826 0.365624
v -0.037924 -0.478826 0.366825
v 0.005576 -0.478826 0.318270
v -0.039195 -0.478826 0.319471
v 0.005576 0.176638 0.318270
v -0.039195 0.176638 0.319471
v -0.037924 0.176638 0.366825
v 0.006846 0.176638 0.365624
v 0.959433 -0.478826 -0.332591
v 0.914663 -0.478826 -0.331390
v 0.958163 -0.478826 -0.379944
v 0.913393 -0.478826 -0.378743
v 0.958163 0.176638 -0.379944
v 0.913393 0.176638 -0.378743
v 0.914663 0.176638 -0.331390
v 0.959433 0.176638 -0.332591
v 0.977464 -0.478826 0.339587
v 0.932694 -0.478826 0.340788
v 0.976194 -0.478826 0.292234
v 0.931424 -0.478826 0.293435
v 0.976194 0.176638 0.292234
v 0.931424 0.176638 0.293435
v 0.932694 0.176638 0.340788
v 0.977465 0.176638 0.339587
v -0.979304 0.178688 0.285301
v 1.010182 0.184646 0.382157
v -0.977413 0.178688 0.410239
v 1.008290 0.184646 0.257219
v -0.979399 0.213138 0.285303
v 1.010087 0.219097 0.382158
v 1.008195 0.219097 0.257220
v -0.977508 0.213138 0.410241
v -0.983004 0.181667 0.152467
v 1.006652 0.181667 0.245468
v -0.980889 0.181667 0.277401
v 1.004537 0.181667 0.120534
v -0.983004 0.216118 0.152467
v 1.006652 0.216118 0.245468
v 1.004537 0.216118 0.120534
v -0.980889 0.216118 0.277401
v -0.990981 0.196148 -0.102397
v 0.995220 0.167186 -0.177058
v -0.986394 0.196148 0.022471
v 0.999807 0.167186 -0.052190
v 0.995682 0.201634 -0.177075
v -0.990519 0.230596 -0.102414
v -0.985933 0.230596 0.022454
v 1.000268 0.201634 -0.052207
v -0.986981 0.192349 0.027251
v 0.999987 0.170985 -0.026050
v -0.983631 0.192349 0.152158
v 1.003338 0.170985 0.098858
v 1.000327 0.205434 -0.026059
v -0.986641 0.226798 0.027242
v -0.983290 0.226798 0.152149
v 1.003678 0.205434 0.098849
v -0.998227 0.184397 -0.400815
v 0.991873 0.178937 -0.319646
v -0.995428 0.184397 -0.275894
v 0.989075 0.178937 -0.444567
v -0.998140 0.218848 -0.400817
v 0.991960 0.213388 -0.319648
v 0.989162 0.213388 -0.444569
v -0.995341 0.218848 -0.275896
v -0.994434 0.181667 -0.267947
v 0.995404 0.181667 -0.179526
v -0.992055 0.181667 -0.143017
v 0.993025 0.181667 -0.304456
v -0.994434 0.216118 -0.267947
v 0.995404 0.216118 -0.179526
v 0.993025 0.216118 -0.304456
v -0.992055 0.216118 -0.143017
v 0.968525 0.155854 -0.390239
v -0.965871 0.155854 -0.324899
v -0.979672 0.155854 -0.337979
v 0.955445 0.155854 -0.376438
v 0.988379 0.155854 0.349908
v 0.974578 0.155854 0.336828
v -0.959817 0.155854 0.402168
v -0.946738 0.155854 0.388367
v 0.968525 0.180307 -0.390239
v -0.979672 0.180307 -0.337979
v 0.988379 0.180307 0.349907
v -0.959817 0.180307 0.402168
v -0.965871 0.183272 -0.324899
v 0.955445 0.183272 -0.376438
v -0.946738 0.183272 0.388367
v 0.974578 0.183272 0.336828
vt 0.799798 0.995968
vt 0.799799 0.000496
vt 0.817051 0.000500
vt 0.817051 0.995972
vt 0.999504 0.317340
vt 0.982251 0.317341
vt 0.982251 0.254767
vt 0.999504 0.254766
vt 0.253774 0.000496
vt 0.253774 0.995948
vt 0.191199 0.996011
vt 0.191199 0.000560
vt 0.999504 0.126639
vt 0.982251 0.126639
vt 0.982251 0.064064
vt 0.999504 0.064064
vt 0.127632 0.000496
vt 0.190207 0.000560
vt 0.190207 0.996011
vt 0.127632 0.995948
vt 0.999503 0.636171
vt 0.999503 0.698740
vt 0.982251 0.698738
vt 0.982251 0.636169
vt 0.982251 0.508043
vt 0.982251 0.445468
vt 0.999503 0.445468
vt 0.999503 0.508043
vt 0.872780 0.995951
vt 0.872780 0.000496
vt 0.890032 0.000496
vt 0.890032 0.995951
vt 0.982251 0.318333
vt 0.999504 0.318334
vt 0.999504 0.380909
vt 0.982251 0.380908
vt 0.982251 0.571609
vt 0.982251 0.509035
vt 0.999503 0.509036
vt 0.999503 0.571610
vt 0.999503 0.762302
vt 0.982251 0.762304
vt 0.982251 0.699735
vt 0.999503 0.699733
vt 0.964006 0.000516
vt 0.981259 0.000496
vt 0.981259 0.995867
vt 0.964006 0.995887
vt 0.909270 0.995939
vt 0.909270 0.000496
vt 0.926523 0.000500
vt 0.926523 0.995943
vt 0.444477 0.000496
vt 0.444477 0.995967
vt 0.381902 0.995991
vt 0.381902 0.000520
vt 0.698748 0.000496
vt 0.698748 0.995950
vt 0.636173 0.995950
vt 0.636173 0.000496
vt 0.763308 0.995962
vt 0.763308 0.000496
vt 0.780561 0.000511
vt 0.780561 0.995977
vt 0.064064 0.996016
vt 0.064064 0.000550
vt 0.126639 0.000496
vt 0.126639 0.995963
vt 0.999504 0.190206
vt 0.982251 0.190207
vt 0.982251 0.127632
vt 0.999504 0.127632
vt 0.853542 0.995961
vt 0.836289 0.995961
vt 0.836289 0.000496
vt 0.853542 0.000496
vt 0.635180 0.000496
vt 0.635180 0.995926
vt 0.572605 0.995980
vt 0.572605 0.000550
vt 0.798806 0.995962
vt 0.781553 0.995977
vt 0.781553 0.000511
vt 0.798806 0.000496
vt 0.945761 0.995867
vt 0.945761 0.000496
vt 0.963013 0.000516
vt 0.963013 0.995887
vt 0.871787 0.995961
vt 0.854534 0.995961
vt 0.854534 0.000496
vt 0.871787 0.000496
vt 0.762316 0.000496
vt 0.762316 0.995950
vt 0.699740 0.995950
vt 0.699740 0.000496
vt 0.982251 0.063071
vt 0.982251 0.000496
vt 0.999504 0.000496
vt 0.999504 0.063072
vt 0.063071 0.996016
vt 0.000496 0.995963
vt 0.000496 0.000496
vt 0.063071 0.000550
vt 0.445470 0.000496
vt 0.508045 0.000520
vt 0.508045 0.995991
vt 0.445470 0.995967
vt 0.380910 0.000496
vt 0.380910 0.995961
vt 0.318334 0.996003
vt 0.318334 0.000539
vt 0.835297 0.995968
vt 0.818044 0.995972
vt 0.818044 0.000500
vt 0.835297 0.000496
vt 0.944768 0.995939
vt 0.927515 0.995943
vt 0.927515 0.000500
vt 0.944768 0.000496
vt 0.317342 0.996003
vt 0.254767 0.995961
vt 0.254767 0.000496
vt 0.317342 0.000538
vt 0.571613 0.000550
vt 0.571613 0.995980
vt 0.509037 0.995926
vt 0.509038 0.000496
vt 0.891025 0.995951
vt 0.891025 0.000496
vt 0.908278 0.000496
vt 0.908278 0.995951
vt 0.999503 0.635175
vt 0.982251 0.635176
vt 0.982251 0.572603
vt 0.999503 0.572602
vt 0.982251 0.444475
vt 0.982251 0.381901
vt 0.999504 0.381901
vt 0.999504 0.444475
vt 0.982251 0.253774
vt 0.982251 0.191199
vt 0.999504 0.191199
vt 0.999504 0.253774
vt 0.938486 0.694914
vt 0.927374 0.694939
vt 0.927374 0.000025
vt 0.938486 0.000000
vt 0.237656 0.948844
vt 0.237656 0.724957
vt 0.246334 0.724957
vt 0.246334 0.948844
vt 0.595845 0.939366
vt 0.595845 0.695880
vt 0.608608 0.695880
vt 0.608608 0.939366
vt 0.400454 0.694899
vt 0.400454 0.000002
vt 0.409842 0.012136
vt 0.409844 0.682765
vt 0.581625 0.000000
vt 0.572236 0.012134
vt 0.581626 0.694897
vt 0.572238 0.682763
vt 0.236928 0.974732
vt 0.225817 0.974732
vt 0.225817 0.724957
vt 0.236928 0.724957
vt 0.288646 0.724957
vt 0.288646 0.742554
vt 0.276579 0.742554
vt 0.276579 0.724957
vt 0.649810 0.939366
vt 0.649810 0.695880
vt 0.662574 0.695880
vt 0.662574 0.939366
vt 0.519092 0.939389
vt 0.519092 0.695902
vt 0.531159 0.695902
vt 0.531159 0.939389
vt 0.676793 0.695880
vt 0.688861 0.695880
vt 0.688861 0.939367
vt 0.676793 0.939367
vt 0.427437 0.939389
vt 0.427437 0.695902
vt 0.440200 0.695902
vt 0.440200 0.939389
vt 0.352622 0.742554
vt 0.340555 0.742554
vt 0.340555 0.724957
vt 0.352622 0.724957
vt 0.986095 0.723961
vt 0.986095 0.000000
vt 0.992684 0.000000
vt 0.992684 0.723961
vt 0.492773 0.695902
vt 0.492773 0.939389
vt 0.480706 0.939389
vt 0.480706 0.695902
vt 0.676065 0.939366
vt 0.663302 0.939366
vt 0.663302 0.695880
vt 0.676065 0.695880
vt 0.263056 1.000000
vt 0.256467 1.000000
vt 0.256467 0.724957
vt 0.263056 0.724957
vt 0.710499 0.960933
vt 0.710499 0.695880
vt 0.717886 0.695880
vt 0.717886 0.960933
vt 0.327032 0.724957
vt 0.327032 0.742554
vt 0.314965 0.742554
vt 0.314965 0.724957
vt 0.314237 0.724957
vt 0.314237 0.742554
vt 0.302169 0.742554
vt 0.302169 0.724957
vt 0.479978 0.939389
vt 0.467911 0.939389
vt 0.467911 0.695902
vt 0.479978 0.695902
vt 0.467183 0.695902
vt 0.467183 0.939389
vt 0.454420 0.939389
vt 0.454419 0.695902
vt 0.622100 0.939366
vt 0.609336 0.939366
vt 0.609336 0.695880
vt 0.622100 0.695880
vt 0.400454 0.939389
vt 0.400454 0.695902
vt 0.413218 0.695902
vt 0.413218 0.939389
vt 0.569545 0.695902
vt 0.569545 0.939389
vt 0.557477 0.939389
vt 0.557477 0.695902
vt 0.689588 0.939367
vt 0.689588 0.695880
vt 0.701656 0.695880
vt 0.701656 0.939367
vt 0.570515 0.945677
vt 0.570515 0.695902
vt 0.581626 0.695902
vt 0.581626 0.945677
vt 0.531887 0.695902
vt 0.543954 0.695902
vt 0.543954 0.939389
vt 0.531887 0.939389
vt 0.365417 0.742554
vt 0.353350 0.742554
vt 0.353350 0.724957
vt 0.365417 0.724957
vt 0.453692 0.695902
vt 0.453692 0.939389
vt 0.440928 0.939389
vt 0.440928 0.695902
vt 0.493501 0.695902
vt 0.505569 0.695902
vt 0.505569 0.939389
vt 0.493501 0.939389
vt 0.378212 0.742554
vt 0.366145 0.742554
vt 0.366145 0.724957
vt 0.378212 0.724957
vt 0.212294 0.968444
vt 0.200227 0.968444
vt 0.200227 0.724957
vt 0.212294 0.724957
vt 0.399726 0.742554
vt 0.387659 0.742554
vt 0.387659 0.724957
vt 0.399726 0.724957
vt 0.582353 0.695880
vt 0.595117 0.695880
vt 0.595117 0.939366
vt 0.582353 0.939366
vt 0.000000 0.724964
vt 0.012067 0.724964
vt 0.012067 0.742561
vt 0.000000 0.742561
vt 0.506296 0.939389
vt 0.506296 0.695902
vt 0.518364 0.695902
vt 0.518364 0.939389
vt 0.959731 0.670646
vt 0.951053 0.670659
vt 0.951053 0.000012
vt 0.959731 0.000000
vt 0.764252 0.000001
vt 0.926647 0.000000
vt 0.926647 0.670630
vt 0.764252 0.670630
vt 0.275851 0.724957
vt 0.275851 0.742554
vt 0.263784 0.742554
vt 0.263784 0.724957
vt 0.255740 0.948844
vt 0.247062 0.948844
vt 0.247062 0.724958
vt 0.255740 0.724957
vt 0.939213 0.694914
vt 0.939213 0.000000
vt 0.950325 0.000025
vt 0.950325 0.694939
vt 0.327760 0.742554
vt 0.327760 0.724957
vt 0.339827 0.724957
vt 0.339827 0.742554
vt 0.763525 0.000002
vt 0.763525 0.694876
vt 0.582353 0.694874
vt 0.582353 0.000000
vt 0.960459 0.670647
vt 0.960459 0.000000
vt 0.969137 0.000012
vt 0.969137 0.670659
vt 0.635591 0.939366
vt 0.622827 0.939366
vt 0.622827 0.695880
vt 0.635591 0.695880
vt 0.024862 0.742561
vt 0.012795 0.742561
vt 0.012795 0.724964
vt 0.024862 0.724964
vt 0.289374 0.742554
vt 0.289374 0.724957
vt 0.301442 0.724957
vt 0.301442 0.742554
vt 0.556749 0.939389
vt 0.544682 0.939389
vt 0.544682 0.695902
vt 0.556749 0.695902
vt 0.636319 0.695880
vt 0.649083 0.695880
vt 0.649083 0.939366
vt 0.636319 0.939366
vt 0.213022 0.724957
vt 0.225090 0.724957
vt 0.225089 0.968444
vt 0.213022 0.968444
vt 0.199499 0.723961
vt 0.195876 0.004995
vt 0.199499 0.000000
vt 0.195876 0.718966
vt 0.000000 0.723961
vt 0.003623 0.718966
vt 0.000000 0.000000
vt 0.003623 0.004995
vt 0.977252 0.713972
vt 0.969864 0.713972
vt 0.969864 0.000000
vt 0.977252 0.000000
vt 0.718614 0.970923
vt 0.718614 0.695880
vt 0.725203 0.695880
vt 0.725203 0.970923
vt 0.993411 0.000000
vt 1.000000 0.000000
vt 1.000000 0.723961
vt 0.993411 0.723961
vt 0.709771 0.960933
vt 0.702384 0.960933
vt 0.702384 0.695880
vt 0.709771 0.695880
vt 0.977980 0.713972
vt 0.977980 0.000000
vt 0.985367 0.000000
vt 0.985367 0.713972
vt 0.203850 0.004999
vt 0.399726 0.000000
vt 0.396103 0.004999
vt 0.200227 0.000000
vt 0.200227 0.723954
vt 0.203850 0.718964
vt 0.399726 0.723954
vt 0.396103 0.718964
vt 0.426709 0.939389
vt 0.413945 0.939389
vt 0.413945 0.695902
vt 0.426709 0.695902
vn 0.0220 -0.0000 0.9998
vn 0.9999 0.0000 -0.0169
vn 0.0030 -1.0000 -0.0000
vn 0.9997 -0.0025 -0.0224
vn -0.0030 1.0000 0.0000
vn -0.9992 0.0134 0.0367
vn 0.9996 -0.0099 -0.0268
vn 0.0161 0.0000 0.9999
vn -0.9996 0.0099 0.0268
vn -0.9999 -0.0028 0.0151
vn 0.9992 -0.0134 -0.0367
vn -0.0376 0.0000 -0.9993
vn -0.0141 0.0000 -0.9999
vn -0.0027 -1.0000 0.0001
vn 0.0107 0.9999 -0.0003
vn 0.0268 -0.0000 0.9996
vn 0.0000 -1.0000 -0.0000
vn 0.9998 -0.0000 -0.0190
vn -0.0184 0.0000 -0.9998
vn 0.0146 0.9999 -0.0005
vn -0.0268 -0.0000 -0.9996
vn 0.0376 -0.0000 0.9993
vn 0.0184 -0.0000 0.9998
vn -0.0107 -0.9999 0.0003
vn -0.9997 0.0025 0.0224
vn -0.0000 1.0000 0.0000
vn 0.0027 1.0000 -0.0001
vn -0.0220 0.0000 -0.9998
vn 0.0141 -0.0000 0.9999
vn -0.0146 -0.9999 0.0005
vn -0.0161 0.0000 -0.9999
vn 0.9999 0.0028 -0.0151
vn -0.9999 0.0000 0.0169
vn -0.9998 0.0000 0.0190
vn -0.0253 -0.0000 -0.9997
vn 0.9996 -0.0106 -0.0253
vn -0.9996 -0.0000 0.0268
vn 0.0114 0.9999 -0.0002
vn 0.0111 0.9999 -0.0008
vn 0.0114 0.9999 -0.0003
vn 0.0111 0.9999 0.0002
vn 0.0113 0.9999 -0.0001
vn 0.0115 0.9999 -0.0002
vn 0.9996 -0.0099 -0.0253
vn 0.9996 -0.0000 -0.0268
vn -0.9996 0.0099 0.0253
vn 0.0116 0.9999 -0.0003
vn -0.9996 0.0106 0.0253
vn 0.0253 0.0000 0.9997
vn -0.0115 -0.9999 0.0003
vn 0.2153 0.9765 -0.0058
vn 0.0058 0.9765 0.2152
vn 0.0058 0.9765 0.2153
vn -0.2152 0.9765 0.0058
vn -0.0058 0.9765 -0.2153
vn -0.0058 0.9765 -0.2152
g TableShort_mesh.028_TableShortWood
usemtl TableShortWood
s 1
f 99/1/1 98/2/1 102/3/1 104/4/1
f 78/5/2 74/6/2 76/7/2 79/8/2
f 65/9/3 68/10/3 66/11/3 67/12/3
f 102/13/4 98/14/4 100/15/4 103/16/4
f 69/17/5 72/18/5 70/19/5 71/20/5
f 81/21/6 83/22/6 87/23/6 86/24/6
f 92/25/7 90/26/7 93/27/7 96/28/7
f 75/29/8 74/30/8 78/31/8 80/32/8
f 94/33/9 89/34/9 91/35/9 95/36/9
f 65/37/10 67/38/10 72/39/10 69/40/10
f 88/41/11 84/42/11 82/43/11 85/44/11
f 85/45/12 82/46/12 81/47/12 86/48/12
f 68/49/13 65/50/13 69/51/13 71/52/13
f 97/53/14 100/54/14 98/55/14 99/56/14
f 95/57/15 96/58/15 93/59/15 94/60/15
f 91/61/16 92/62/16 96/63/16 95/64/16
f 73/65/17 76/66/17 74/67/17 75/68/17
f 110/69/18 106/70/18 108/71/18 111/72/18
f 111/73/19 108/74/19 105/75/19 109/76/19
f 87/77/20 88/78/20 85/79/20 86/80/20
f 93/81/21 90/82/21 89/83/21 94/84/21
f 83/85/22 84/86/22 88/87/22 87/88/22
f 112/89/23 107/90/23 106/91/23 110/92/23
f 92/93/24 91/94/24 89/95/24 90/96/24
f 97/97/25 99/98/25 104/99/25 101/100/25
f 77/101/26 80/102/26 78/103/26 79/104/26
f 101/105/27 104/106/27 102/107/27 103/108/27
f 105/109/17 108/110/17 106/111/17 107/112/17
f 103/113/28 100/114/28 97/115/28 101/116/28
f 72/117/29 67/118/29 66/119/29 70/120/29
f 109/121/26 112/122/26 110/123/26 111/124/26
f 84/125/30 83/126/30 81/127/30 82/128/30
f 76/129/31 73/130/31 77/131/31 79/132/31
f 70/133/32 66/134/32 68/135/32 71/136/32
f 73/137/33 75/138/33 80/139/33 77/140/33
f 105/141/34 107/142/34 112/143/34 109/144/34
g TableShort_mesh.028_TableShortMetal
usemtl TableShortMetal
f 11/145/35 4/146/35 1/147/35 12/148/35
f 8/149/36 5/150/36 16/151/36 14/152/36
f 46/153/37 44/154/37 42/155/37 47/156/37
f 10/157/38 9/158/39 13/159/40
f 10/157/38 13/159/40 14/160/41
f 9/158/39 11/161/42 15/162/41
f 9/158/39 15/162/41 13/159/40
f 11/161/42 12/163/39 16/164/43
f 11/161/42 16/164/43 15/162/41
f 12/163/39 10/157/38 14/160/41
f 12/163/39 14/160/41 16/164/43
f 9/165/44 2/166/44 4/167/44 11/168/44
f 18/169/17 20/170/17 19/171/17 17/172/17
f 22/173/37 20/174/37 18/175/37 23/176/37
f 23/177/16 18/178/16 17/179/16 24/180/16
f 27/181/21 28/182/21 30/183/21 29/184/21
f 30/185/37 28/186/37 26/187/37 31/188/37
f 47/189/26 48/190/26 45/191/26 46/192/26
f 119/193/16 117/194/16 123/195/16 124/196/16
f 37/197/21 35/198/21 36/199/21 38/200/21
f 57/201/45 59/202/45 61/203/45 64/204/45
f 122/205/37 115/206/37 119/207/37 124/208/37
f 120/209/45 114/210/45 125/211/45 127/212/45
f 26/213/17 28/214/17 27/215/17 25/216/17
f 34/217/17 36/218/17 35/219/17 33/220/17
f 42/221/16 41/222/16 48/223/16 47/224/16
f 38/225/37 36/226/37 34/227/37 39/228/37
f 49/229/45 51/230/45 53/231/45 56/232/45
f 62/233/37 60/234/37 58/235/37 63/236/37
f 61/237/21 59/238/21 60/239/21 62/240/21
f 31/241/16 26/242/16 25/243/16 32/244/16
f 1/245/46 3/246/46 10/247/46 12/248/46
f 50/249/16 49/250/16 56/251/16 55/252/16
f 39/253/26 40/254/26 37/255/26 38/256/26
f 54/257/37 52/258/37 50/259/37 55/260/37
f 43/261/21 44/262/21 46/263/21 45/264/21
f 63/265/26 64/266/26 61/267/26 62/268/26
f 34/269/16 33/270/16 40/271/16 39/272/16
f 31/273/26 32/274/26 29/275/26 30/276/26
f 41/277/45 43/278/45 45/279/45 48/280/45
f 55/281/26 56/282/26 53/283/26 54/284/26
f 53/285/21 51/286/21 52/287/21 54/288/21
f 13/289/35 6/290/35 8/291/35 14/292/35
f 5/293/47 8/294/47 6/295/47 7/296/47
f 42/297/17 44/298/17 43/299/17 41/300/17
f 15/301/48 7/302/48 6/303/48 13/304/48
f 3/305/49 2/306/49 9/307/49 10/308/49
f 58/309/17 60/310/17 59/311/17 57/312/17
f 1/313/50 4/314/50 2/315/50 3/316/50
f 5/317/49 7/318/49 15/319/49 16/320/49
f 25/321/45 27/322/45 29/323/45 32/324/45
f 23/325/26 24/326/26 21/327/26 22/328/26
f 50/329/17 52/330/17 51/331/17 49/332/17
f 58/333/16 57/334/16 64/335/16 63/336/16
f 33/337/45 35/338/45 37/339/45 40/340/45
f 19/341/21 20/342/21 22/343/21 21/344/21
f 113/345/17 114/346/17 115/347/17
f 114/346/17 113/345/17 116/348/17
f 113/345/17 117/349/17 118/350/17
f 113/345/17 118/350/17 116/348/17
f 119/351/17 118/350/17 117/349/17
f 118/350/17 119/351/17 120/352/17
f 119/351/17 115/347/17 114/346/17
f 119/351/17 114/346/17 120/352/17
f 125/353/16 114/354/16 116/355/16 126/356/16
f 117/357/45 113/358/45 121/359/45 123/360/45
f 121/361/21 113/362/21 115/363/21 122/364/21
f 126/365/37 116/366/37 118/367/37 128/368/37
f 118/369/21 120/370/21 127/371/21 128/372/21
f 128/373/51 121/374/51 126/375/51
f 123/376/51 121/374/51 128/373/51
f 124/377/52 128/373/53 127/378/52
f 128/373/53 124/377/52 123/376/53
f 122/379/54 124/377/54 125/380/54
f 125/380/54 124/377/54 127/378/54
f 121/374/55 122/379/56 126/375/55
f 126/375/55 122/379/56 125/380/56
f 17/381/45 19/382/45 21/383/45 24/384/45
