# Blender v3.1.0 OBJ File: 'untitled.blend'
# www.blender.org
mtllib WoodLader.mtl
o WoodLader_mesh.034
v -0.190433 -0.476430 -0.229822
v -0.219758 -0.477147 -0.228118
v -0.193203 -0.473498 -0.270529
v -0.222527 -0.474214 -0.268825
v -0.202853 0.219645 -0.139781
v -0.232177 0.218928 -0.138076
v -0.228641 0.218852 -0.107152
v -0.199317 0.219569 -0.108857
v 0.221250 -0.260726 -0.219042
v 0.221777 -0.304319 -0.244568
v 0.221114 -0.257682 -0.236371
v 0.221914 -0.307363 -0.227238
v -0.229099 -0.267592 -0.220348
v -0.228572 -0.311186 -0.245874
v -0.228436 -0.314229 -0.228544
v -0.229235 -0.264548 -0.237678
v 0.219978 -0.032175 -0.178628
v 0.220505 -0.075768 -0.204154
v 0.219842 -0.029131 -0.195958
v 0.220641 -0.078812 -0.186824
v -0.233645 -0.039041 -0.176272
v -0.233118 -0.082635 -0.201799
v -0.232982 -0.085678 -0.184469
v -0.233782 -0.035997 -0.193602
v -0.175886 0.199649 -0.147288
v -0.174331 0.199649 0.091454
v -0.194273 0.199649 0.091584
v -0.195827 0.199649 -0.147159
v -0.195827 0.229481 -0.147159
v -0.194273 0.229481 0.091584
v -0.175886 0.229481 -0.147288
v -0.174331 0.229481 0.091454
v -0.241599 0.213216 -0.179085
v 0.253675 0.223151 -0.091264
v -0.245465 0.213199 -0.084687
v 0.257541 0.223168 -0.185662
v -0.242194 0.243042 -0.179104
v 0.253080 0.252977 -0.091283
v 0.256946 0.252994 -0.185681
v -0.246060 0.243025 -0.084706
v 0.210349 0.199649 0.059132
v 0.188853 0.199649 -0.179480
v 0.208795 0.199649 -0.179610
v 0.190407 0.199649 0.059262
v 0.188853 0.230034 -0.179480
v 0.190407 0.229481 0.059262
v 0.208794 0.230034 -0.179610
v 0.210349 0.229481 0.059132
v -0.198691 -0.025396 0.151812
v 0.203227 -0.025396 0.149195
v -0.198309 -0.025396 0.210392
v 0.203609 -0.025396 0.207775
v 0.203227 -0.003917 0.149195
v -0.198691 -0.003917 0.151812
v -0.198309 -0.003917 0.210392
v 0.203609 -0.003917 0.207775
v -0.199619 -0.473430 0.427946
v -0.229325 -0.474605 0.367180
v -0.200626 -0.475321 0.365777
v -0.228318 -0.472714 0.429349
v -0.223184 0.219690 0.048274
v -0.193478 0.218848 0.109041
v -0.194485 0.218973 0.046872
v -0.222177 0.219564 0.110443
v -0.197790 -0.323440 0.290181
v 0.204510 -0.323440 0.346143
v -0.197408 -0.323440 0.348760
v 0.204128 -0.323440 0.287563
v -0.197790 -0.301960 0.290181
v 0.204510 -0.301960 0.346143
v 0.204128 -0.301960 0.287563
v -0.197408 -0.301960 0.348760
v 0.182627 -0.473498 -0.267678
v 0.209732 -0.471981 -0.225615
v 0.180388 -0.471264 -0.226938
v 0.211971 -0.474214 -0.266355
v 0.193979 0.219644 -0.137066
v 0.220190 0.218852 -0.104776
v 0.223323 0.218928 -0.135743
v 0.190846 0.219569 -0.106098
v 0.198139 -0.473430 0.430655
v 0.227051 -0.476399 0.369507
v 0.226854 -0.472714 0.431684
v 0.198336 -0.477115 0.368478
v 0.216757 0.219690 0.050709
v 0.187846 0.218847 0.111857
v 0.216560 0.219564 0.112885
v 0.188043 0.218973 0.049680
v -0.241565 0.218181 -0.078182
v 0.254352 0.218181 0.008400
v -0.244748 0.218181 0.016241
v 0.257535 0.218181 -0.086023
v -0.241565 0.248013 -0.078182
v 0.254352 0.248013 0.008400
v 0.257535 0.248013 -0.086023
v -0.244748 0.248013 0.016241
v -0.239930 0.218180 0.018452
v 0.254071 0.218181 0.119689
v -0.244787 0.218180 0.112805
v 0.258928 0.218181 0.025336
v -0.239930 0.248012 0.018452
v 0.254071 0.248012 0.119689
v 0.258928 0.248012 0.025336
v -0.244787 0.248012 0.112805
v -0.227818 0.011406 0.155507
v -0.225852 -0.003986 -0.004470
v -0.224628 0.011406 0.155486
v -0.229042 -0.003986 -0.004449
v -0.226976 0.011406 -0.151385
v -0.230167 0.011406 -0.151364
v -0.225852 0.006907 -0.004470
v -0.227818 0.022299 0.155507
v -0.224628 0.022299 0.155486
v -0.229042 0.006907 -0.004449
v -0.226976 0.022299 -0.151385
v -0.230167 0.022299 -0.151364
v 0.218738 -0.003986 -0.002066
v 0.222788 0.011406 0.157872
v 0.219597 0.011406 0.157892
v 0.221929 -0.003986 -0.002087
v 0.217949 0.011406 -0.148983
v 0.221140 0.011406 -0.149004
v 0.222788 0.022299 0.157872
v 0.218738 0.006907 -0.002066
v 0.219597 0.022299 0.157892
v 0.221929 0.006907 -0.002087
v 0.217949 0.022299 -0.148983
v 0.221140 0.022299 -0.149004
v -0.224613 0.016446 0.157719
v -0.227804 0.016446 0.157739
v -0.230178 0.016446 -0.153036
v -0.226987 0.016446 -0.153057
v 0.222802 0.016446 0.160104
v 0.219612 0.016446 0.160125
v 0.217938 0.016446 -0.150655
v 0.221129 0.016446 -0.150676
v -0.225852 0.001054 -0.004470
v -0.229042 0.001054 -0.004449
v 0.218738 0.001054 -0.002066
v 0.221929 0.001054 -0.002087
vt 0.710590 0.795845
vt 0.735193 0.795619
vt 0.735193 0.829750
vt 0.710590 0.829976
vt 0.053429 0.825847
vt 0.053429 0.799782
vt 0.077996 0.801136
vt 0.077996 0.827201
vt 0.923965 0.585602
vt 0.899911 0.585901
vt 0.899911 0.000300
vt 0.923965 0.000000
vt 0.850751 0.000235
vt 0.850751 0.579900
vt 0.826170 0.579664
vt 0.826170 0.000000
vt 0.675785 0.595635
vt 0.667286 0.003897
vt 0.701240 0.000000
vt 0.701239 0.590909
vt 0.751899 0.835178
vt 0.737160 0.835176
vt 0.737160 0.795508
vt 0.751899 0.795510
vt 0.038690 0.839452
vt 0.038690 0.799784
vt 0.053429 0.799782
vt 0.053429 0.839450
vt 0.000000 0.799781
vt 0.000000 0.422498
vt 0.039007 0.422494
vt 0.039007 0.799777
vt 0.700394 0.795843
vt 0.700394 0.830066
vt 0.675786 0.829841
vt 0.675786 0.795619
vt 0.826170 0.582147
vt 0.801591 0.581870
vt 0.801591 0.000000
vt 0.826170 0.000276
vt 0.768392 0.595698
vt 0.768392 0.972971
vt 0.753810 0.972829
vt 0.753810 0.595556
vt 0.474169 0.860289
vt 0.474169 0.660338
vt 0.490874 0.660339
vt 0.490874 0.860290
vt 0.222291 0.802090
vt 0.237029 0.802092
vt 0.237029 0.841760
vt 0.222291 0.841759
vt 0.365106 0.757584
vt 0.365106 0.420898
vt 0.414159 0.420903
vt 0.414159 0.757590
vt 0.196991 0.422047
vt 0.196991 0.802091
vt 0.158001 0.802085
vt 0.158001 0.422042
vt 0.667286 0.860286
vt 0.650581 0.860288
vt 0.650581 0.660370
vt 0.667286 0.660368
vt 0.547761 0.660340
vt 0.564466 0.660338
vt 0.564466 0.860270
vt 0.547761 0.860271
vt 0.128984 0.840627
vt 0.103996 0.840630
vt 0.103996 0.422509
vt 0.128984 0.422506
vt 0.378174 0.806659
vt 0.378174 0.757590
vt 0.396167 0.757591
vt 0.396167 0.806660
vt 0.893322 0.914502
vt 0.875330 0.914502
vt 0.875330 0.577813
vt 0.893322 0.577813
vt 0.397454 0.806660
vt 0.414159 0.806660
vt 0.414159 0.831648
vt 0.397454 0.831648
vt 0.079007 0.004314
vt 0.158001 0.000000
vt 0.158001 0.418191
vt 0.079007 0.422506
vt 0.024572 0.825847
vt 0.000000 0.827205
vt 0.000000 0.801140
vt 0.024572 0.799781
vt 0.751899 0.795508
vt 0.735193 0.795507
vt 0.735193 0.595556
vt 0.751899 0.595557
vt 0.174707 0.802090
vt 0.174707 0.827543
vt 0.158001 0.827543
vt 0.158001 0.802091
vt 0.875330 0.579905
vt 0.875330 0.997752
vt 0.850341 0.997757
vt 0.850341 0.579909
vt 0.962600 0.583338
vt 0.962600 0.963358
vt 0.948017 0.963334
vt 0.948017 0.583314
vt 0.621350 0.739495
vt 0.621350 0.818587
vt 0.596363 0.818572
vt 0.596363 0.739481
vt 0.079007 0.422508
vt 0.103996 0.422506
vt 0.103996 0.840738
vt 0.079007 0.840740
vt 0.396167 0.806660
vt 0.396167 0.757591
vt 0.414159 0.757590
vt 0.414159 0.806659
vt 0.938533 0.584410
vt 0.938533 0.964427
vt 0.923965 0.964454
vt 0.923965 0.584436
vt 0.710203 0.595636
vt 0.735193 0.595635
vt 0.735193 0.795618
vt 0.709740 0.795619
vt 0.650580 0.739481
vt 0.650580 0.818538
vt 0.625591 0.818542
vt 0.625591 0.739485
vt 0.425108 0.757586
vt 0.425108 0.420898
vt 0.474169 0.420895
vt 0.474169 0.757582
vt 0.571373 0.739478
vt 0.571373 0.660368
vt 0.596363 0.660371
vt 0.596363 0.739481
vt 0.850341 0.916594
vt 0.832349 0.916594
vt 0.832349 0.579905
vt 0.850341 0.579905
vt 0.266991 0.807799
vt 0.266991 0.758730
vt 0.284984 0.758729
vt 0.284984 0.807798
vt 0.497781 0.860321
vt 0.497781 0.660338
vt 0.522771 0.660339
vt 0.522771 0.860322
vt 0.364157 0.758367
vt 0.364157 0.810375
vt 0.340099 0.809596
vt 0.340099 0.757589
vt 0.449166 0.809653
vt 0.425108 0.810424
vt 0.425107 0.758356
vt 0.449166 0.757586
vt 0.948017 0.583017
vt 0.948017 0.000000
vt 0.972071 0.000296
vt 0.972071 0.583314
vt 0.972071 0.583326
vt 0.972071 0.000313
vt 0.996123 0.000000
vt 0.996123 0.583013
vt 0.667286 0.021889
vt 0.667286 0.660368
vt 0.619329 0.640013
vt 0.620036 0.000000
vt 0.316045 0.758729
vt 0.266991 0.758724
vt 0.266991 0.422037
vt 0.316045 0.422043
vt 0.237029 0.422042
vt 0.237029 0.802085
vt 0.198023 0.802090
vt 0.198023 0.422047
vt 0.522771 0.860322
vt 0.522771 0.660339
vt 0.547761 0.660338
vt 0.547761 0.860321
vt 0.625591 0.739481
vt 0.625591 0.660371
vt 0.650581 0.660368
vt 0.650581 0.739478
vt 0.596363 0.818542
vt 0.571373 0.818538
vt 0.571373 0.739481
vt 0.596363 0.739485
vt 0.378174 0.806660
vt 0.394879 0.806660
vt 0.394879 0.831648
vt 0.378174 0.831648
vt 0.449166 0.809654
vt 0.449166 0.757586
vt 0.473220 0.758351
vt 0.473220 0.810419
vt 0.077996 0.422499
vt 0.077996 0.799782
vt 0.039007 0.799777
vt 0.039007 0.422494
vt 0.735193 0.008164
vt 0.768392 0.000000
vt 0.768392 0.590805
vt 0.742877 0.595556
vt 0.395113 0.002972
vt 0.395113 0.420898
vt 0.316045 0.417926
vt 0.316045 0.000000
vt 0.340099 0.809628
vt 0.316045 0.810396
vt 0.316045 0.758357
vt 0.340099 0.757589
vt 0.787023 0.972970
vt 0.787023 0.595700
vt 0.801591 0.595556
vt 0.801591 0.972826
vt 0.522771 0.021878
vt 0.522771 0.660338
vt 0.474169 0.641360
vt 0.475504 0.000000
vt 0.923965 0.584094
vt 0.923965 0.000000
vt 0.948017 0.000316
vt 0.948017 0.584410
vt 0.572080 0.660368
vt 0.571373 0.020355
vt 0.619329 0.000000
vt 0.619329 0.638479
vt 0.316045 0.418138
vt 0.237029 0.422037
vt 0.237030 0.003899
vt 0.316045 0.000000
vt 0.079007 0.004307
vt 0.079007 0.422494
vt 0.000000 0.418187
vt 0.000000 0.000000
vt 0.133012 0.840627
vt 0.133012 0.422506
vt 0.158001 0.422508
vt 0.158001 0.840629
vt 0.768392 0.932245
vt 0.768392 0.595556
vt 0.786384 0.595556
vt 0.786384 0.932245
vt 0.801591 0.999994
vt 0.801591 0.582147
vt 0.826579 0.582152
vt 0.826579 1.000000
vt 0.899911 0.922591
vt 0.899911 0.585902
vt 0.917902 0.585901
vt 0.917902 0.922591
vt 0.395113 0.002970
vt 0.474169 0.000000
vt 0.474169 0.417925
vt 0.395113 0.420895
vt 0.158001 0.418139
vt 0.158001 0.000000
vt 0.237029 0.003903
vt 0.237029 0.422042
vt 0.316045 0.757589
vt 0.316045 0.420901
vt 0.365106 0.420898
vt 0.365106 0.757585
vt 0.284984 0.807798
vt 0.284984 0.758729
vt 0.302977 0.758730
vt 0.302977 0.807799
vt 0.621350 0.739460
vt 0.596363 0.739474
vt 0.596363 0.660383
vt 0.621350 0.660368
vt 0.242002 0.840270
vt 0.242002 0.422037
vt 0.266991 0.422039
vt 0.266991 0.840271
vt 0.899911 0.577546
vt 0.875330 0.577813
vt 0.875330 0.000267
vt 0.899911 0.000000
vt 0.701240 0.595636
vt 0.701240 0.795619
vt 0.676250 0.795617
vt 0.675786 0.595635
vt 0.875330 0.000000
vt 0.875330 0.579662
vt 0.850751 0.579905
vt 0.850751 0.000243
vt 0.212761 0.802090
vt 0.212761 0.841759
vt 0.198023 0.841760
vt 0.198023 0.802092
vt 0.801591 0.004751
vt 0.801591 0.595556
vt 0.768392 0.587392
vt 0.776075 0.000000
vt 0.735193 0.004726
vt 0.735193 0.595635
vt 0.701240 0.591738
vt 0.709739 0.000000
vt 0.522771 0.018978
vt 0.571373 0.000000
vt 0.571373 0.638460
vt 0.524106 0.660338
vt 0.191412 0.827079
vt 0.174707 0.827080
vt 0.174707 0.802091
vt 0.191412 0.802091
vt 0.709871 0.521882
vt 0.839659 0.000000
vt 0.889012 0.007183
vt 0.759223 0.521882
vt 0.889841 0.999989
vt 0.889856 0.994688
vt 0.916759 0.994699
vt 0.916744 1.000000
vt 0.973097 1.000000
vt 0.973076 0.992885
vt 0.999978 0.992874
vt 1.000000 0.999988
vt 0.945341 0.478388
vt 0.945333 0.005448
vt 0.972237 0.005460
vt 0.972244 0.478400
vt 0.889012 0.994617
vt 0.839659 0.999996
vt 0.973096 0.005461
vt 1.000000 0.005449
vt 0.999990 0.478389
vt 0.973087 0.478400
vt 0.797164 0.994617
vt 0.667376 0.521882
vt 0.917587 0.994700
vt 0.917594 0.521760
vt 0.944498 0.521748
vt 0.944491 0.994688
vt 0.945350 0.992873
vt 0.972254 0.992885
vt 0.917603 0.007275
vt 0.944507 0.007263
vt 0.916749 0.521759
vt 0.889846 0.521748
vt 0.916737 0.007274
vt 0.889834 0.007263
vt 0.916759 0.000012
vt 0.889856 0.000000
vt 0.972232 1.000000
vt 0.945329 0.999988
vt 0.945349 0.000000
vt 0.972254 0.000011
vt 0.944485 0.000000
vt 0.917581 0.000012
vt 0.917602 1.000000
vt 0.944507 0.999989
vt 0.999984 0.000000
vt 0.973081 0.000011
vt 0.394742 0.000000
vt 0.264955 0.521882
vt 0.222458 0.521882
vt 0.352247 0.007183
vt 0.444095 0.007183
vt 0.314306 0.521882
vt 0.797164 0.007183
vt 0.666553 0.005381
vt 0.536765 0.478115
vt 0.487413 0.478115
vt 0.617201 0.000000
vt 0.394742 0.999997
vt 0.352247 0.994616
vt 0.444095 0.994616
vt 0.129789 0.992814
vt 0.000000 0.478115
vt 0.042496 0.478115
vt 0.172283 0.999997
vt 0.666553 0.992813
vt 0.617201 0.999997
vt 0.574706 0.992813
vt 0.444917 0.478115
vt 0.574706 0.005381
vt 0.172283 0.000000
vt 0.221636 0.005381
vt 0.091847 0.478115
vt 0.129788 0.005381
vt 0.221636 0.992814
vn -0.0268 -0.9982 0.0533
vn 0.0242 0.9997 0.0049
vn 0.0429 -0.4155 -0.9086
vn 0.0487 0.1842 -0.9817
vn 0.9958 0.0289 -0.0864
vn -0.9999 -0.0151 0.0052
vn 0.9999 0.0151 -0.0052
vn 0.0002 0.1731 -0.9849
vn 0.0201 -0.9971 -0.0732
vn 0.0613 -0.1702 0.9835
vn -0.0155 0.9848 0.1731
vn 0.0000 -1.0000 0.0000
vn 0.0000 1.0000 0.0000
vn 0.0077 -0.1730 0.9849
vn 0.0000 1.0000 0.0023
vn 0.0157 0.0000 0.9999
vn -1.0000 0.0000 0.0065
vn -0.0065 0.0000 -1.0000
vn 0.0065 0.0000 1.0000
vn -0.0199 0.9998 -0.0006
vn -0.0241 0.9997 0.0052
vn 0.0138 0.0000 -0.9999
vn -0.0140 0.9848 0.1731
vn -0.9990 -0.0200 -0.0409
vn 0.0132 0.0009 0.9999
vn 1.0000 0.0000 -0.0065
vn 0.0140 -0.9848 -0.1731
vn -0.9987 0.0000 -0.0514
vn 0.9994 0.0000 0.0337
vn 0.0228 -0.9980 0.0592
vn -0.0250 0.9997 0.0019
vn -0.0429 0.4174 0.9077
vn 0.0548 0.4174 0.9071
vn 0.9997 -0.0162 -0.0160
vn -0.0077 0.1730 -0.9849
vn -0.9994 0.0000 -0.0337
vn 0.9987 0.0000 0.0514
vn 0.0250 0.9997 0.0016
vn -0.0002 -0.1731 0.9849
vn 0.9967 -0.0294 0.0756
vn -0.0235 -0.9993 0.0308
vn 0.0155 -0.9848 -0.1731
vn 0.9999 0.0161 0.0027
vn -0.0547 -0.4164 -0.9075
vn -0.9997 0.0162 0.0160
vn 0.0199 -0.9998 0.0006
vn -0.0157 0.0000 -0.9999
vn -0.0138 0.0000 0.9999
vn 0.9990 0.0200 0.0409
vn -0.0132 -0.0009 -0.9999
vn -0.0485 -0.1714 0.9840
vn -0.0615 0.1842 -0.9810
vn -0.9967 0.0294 -0.0756
vn -0.9958 -0.0289 0.0864
vn -0.9999 -0.0161 -0.0027
vn -1.0000 -0.0000 0.0076
vn -1.0000 0.0002 0.0076
vn -0.0065 -0.0210 -0.9998
vn -0.0062 0.2747 -0.9615
vn 0.0065 -0.0263 0.9996
vn 0.0059 -0.4050 0.9143
vn -0.0007 -0.9946 -0.1042
vn -1.0000 -0.0002 0.0076
vn -1.0000 0.0002 0.0077
vn -1.0000 -0.0000 0.0077
vn 0.0007 0.9946 0.1042
vn 0.0006 -0.9954 0.0958
vn -0.0006 0.9954 -0.0958
vn 0.0061 0.3564 0.9343
vn -0.0062 -0.3149 -0.9491
vn -0.0063 0.2747 -0.9615
vn -1.0000 -0.0000 0.0054
vn -1.0000 0.0003 0.0054
vn -1.0000 -0.0002 0.0054
vn -1.0000 -0.0003 0.0077
vn 1.0000 -0.0001 -0.0054
vn 1.0000 0.0000 -0.0054
vn -1.0000 0.0002 0.0054
vn 1.0000 0.0003 -0.0077
vn 1.0000 0.0000 -0.0077
vn 1.0000 0.0000 -0.0076
vn 1.0000 0.0002 -0.0054
vn 1.0000 -0.0003 -0.0054
vn 1.0000 0.0002 -0.0076
vn 1.0000 -0.0002 -0.0077
vn 1.0000 -0.0002 -0.0076
g WoodLader_mesh.034_WoodLaderWood
usemtl WoodLaderWood
s 1
f 73/1/1 76/2/1 74/3/1 75/4/1
f 77/5/2 80/6/2 78/7/2 79/8/2
f 82/9/3 84/10/3 88/11/3 85/12/3
f 79/13/4 76/14/4 73/15/4 77/16/4
f 8/17/5 1/18/5 3/19/5 5/20/5
f 21/21/6 24/22/6 22/23/6 23/24/6
f 17/25/7 20/26/7 18/27/7 19/28/7
f 16/29/8 11/30/8 10/31/8 14/32/8
f 2/33/9 4/34/9 3/35/9 1/36/9
f 2/37/10 1/38/10 8/39/10 7/40/10
f 11/41/11 16/42/11 13/43/11 9/44/11
f 27/45/12 28/46/12 25/47/12 26/48/12
f 13/49/6 16/50/6 14/51/6 15/52/6
f 55/53/13 56/54/13 53/55/13 54/56/13
f 17/57/14 21/58/14 23/59/14 20/60/14
f 30/61/13 32/62/13 31/63/13 29/64/13
f 46/65/15 48/66/15 47/67/15 45/68/15
f 96/69/16 91/70/16 90/71/16 94/72/16
f 49/73/17 51/74/17 55/75/17 54/76/17
f 53/77/18 50/78/18 49/79/18 54/80/18
f 44/81/19 41/82/19 48/83/19 46/84/19
f 37/85/20 40/86/20 38/87/20 39/88/20
f 7/89/21 8/90/21 5/91/21 6/92/21
f 41/93/12 44/94/12 42/95/12 43/96/12
f 47/97/18 43/98/18 42/99/18 45/100/18
f 100/101/22 97/102/22 101/103/22 103/104/22
f 19/105/23 24/106/23 21/107/23 17/108/23
f 33/109/24 35/110/24 40/111/24 37/112/24
f 40/113/25 35/114/25 34/115/25 38/116/25
f 52/117/26 50/118/26 53/119/26 56/120/26
f 22/121/27 18/122/27 20/123/27 23/124/27
f 48/125/26 41/126/26 43/127/26 47/128/26
f 97/129/28 99/130/28 104/131/28 101/132/28
f 52/133/12 51/134/12 49/135/12 50/136/12
f 90/137/29 92/138/29 95/139/29 94/140/29
f 71/141/18 68/142/18 65/143/18 69/144/18
f 66/145/26 68/146/26 71/147/26 70/148/26
f 28/149/17 27/150/17 30/151/17 29/152/17
f 81/153/30 84/154/30 82/155/30 83/156/30
f 85/157/31 88/158/31 86/159/31 87/160/31
f 86/161/32 81/162/32 83/163/32 87/164/32
f 64/165/33 60/166/33 57/167/33 62/168/33
f 62/169/34 57/170/34 59/171/34 63/172/34
f 69/173/13 72/174/13 70/175/13 71/176/13
f 24/177/35 19/178/35 18/179/35 22/180/35
f 26/181/26 25/182/26 31/183/26 32/184/26
f 89/185/36 91/186/36 96/187/36 93/188/36
f 102/189/37 98/190/37 100/191/37 103/192/37
f 27/193/19 26/194/19 32/195/19 30/196/19
f 61/197/38 64/198/38 62/199/38 63/200/38
f 9/201/39 13/202/39 15/203/39 12/204/39
f 74/205/40 76/206/40 79/207/40 78/208/40
f 97/209/12 100/210/12 98/211/12 99/212/12
f 57/213/41 60/214/41 58/215/41 59/216/41
f 14/217/42 10/218/42 12/219/42 15/220/42
f 87/221/43 83/222/43 82/223/43 85/224/43
f 63/225/44 59/226/44 58/227/44 61/228/44
f 61/229/45 58/230/45 60/231/45 64/232/45
f 93/233/13 96/234/13 94/235/13 95/236/13
f 33/237/46 36/238/46 34/239/46 35/240/46
f 92/241/47 89/242/47 93/243/47 95/244/47
f 67/245/19 66/246/19 70/247/19 72/248/19
f 99/249/48 98/250/48 102/251/48 104/252/48
f 51/253/19 52/254/19 56/255/19 55/256/19
f 101/257/13 104/258/13 102/259/13 103/260/13
f 89/261/12 92/262/12 90/263/12 91/264/12
f 65/265/12 68/266/12 66/267/12 67/268/12
f 65/269/17 67/270/17 72/271/17 69/272/17
f 38/273/49 34/274/49 36/275/49 39/276/49
f 36/277/50 33/278/50 37/279/50 39/280/50
f 78/281/51 80/282/51 75/283/51 74/284/51
f 42/285/17 44/286/17 46/287/17 45/288/17
f 5/289/52 3/290/52 4/291/52 6/292/52
f 9/293/7 12/294/7 10/295/7 11/296/7
f 77/297/53 73/298/53 75/299/53 80/300/53
f 6/301/54 4/302/54 2/303/54 7/304/54
f 84/305/55 81/306/55 86/307/55 88/308/55
f 25/309/18 28/310/18 29/311/18 31/312/18
g WoodLader_mesh.034_WoodLaderMetal
usemtl WoodLaderMetal
f 138/313/56 130/314/56 112/315/57 114/316/56
f 135/317/58 127/318/59 128/319/59 136/320/58
f 134/321/60 119/322/61 118/323/61 133/324/60
f 108/325/12 110/326/62 109/327/62 106/328/12
f 138/313/56 114/316/56 116/329/63 131/330/56
f 121/331/62 122/332/62 120/333/12 117/334/12
f 110/335/64 108/336/65 138/313/56 131/330/56
f 116/337/66 114/338/13 111/339/13 115/340/66
f 105/341/67 108/325/12 106/328/12 107/342/67
f 111/339/13 114/338/13 112/343/68 113/344/68
f 126/345/13 128/319/66 127/318/66 124/346/13
f 117/334/12 120/333/12 118/323/67 119/322/67
f 123/347/68 126/345/13 124/346/13 125/348/68
f 133/349/60 123/347/69 125/348/69 134/350/60
f 129/351/60 130/352/60 105/341/61 107/342/61
f 131/353/58 132/354/58 109/327/70 110/326/70
f 129/355/60 113/344/69 112/343/69 130/356/60
f 131/357/58 116/337/71 115/340/71 132/358/58
f 136/359/58 122/332/70 121/331/70 135/360/58
f 134/361/72 139/362/72 117/363/72 119/364/73
f 125/365/74 124/366/72 139/362/72 134/361/72
f 130/314/56 138/313/56 108/336/65 105/367/75
f 128/368/76 126/369/77 140/370/77 136/371/77
f 139/362/72 135/372/72 121/373/74 117/363/72
f 139/362/72 124/366/72 127/374/78 135/372/72
f 107/375/79 106/376/80 137/377/81 129/378/81
f 123/379/82 133/380/77 140/370/77 126/369/77
f 140/370/77 133/380/77 118/381/83 120/382/77
f 120/382/77 122/383/82 136/371/77 140/370/77
f 137/377/81 132/384/81 115/385/84 111/386/81
f 109/387/85 132/384/81 137/377/81 106/376/80
f 137/377/81 111/386/81 113/388/86 129/378/81
